<svg width="2426" height="1459" viewBox="0 0 2426 1459" fill="none" xmlns="http://www.w3.org/2000/svg">
<line x1="2426" y1="0.500122" x2="1" y2="0.500036" stroke="black"/>
<line x1="2426" y1="12.5001" x2="1" y2="12.5" stroke="black"/>
<line x1="2426" y1="24.5002" x2="1" y2="24.5002" stroke="black"/>
<line x1="2426" y1="36.5004" x2="1" y2="36.5003" stroke="black"/>
<line x1="2426" y1="48.5004" x2="1" y2="48.5003" stroke="black"/>
<line x1="2426" y1="60.5005" x2="1" y2="60.5004" stroke="black"/>
<line x1="2426" y1="72.5006" x2="1" y2="72.5005" stroke="black"/>
<line x1="2426" y1="84.5007" x2="1" y2="84.5006" stroke="black"/>
<line x1="2426" y1="96.5007" x2="1" y2="96.5006" stroke="black"/>
<line x1="2426" y1="108.501" x2="1" y2="108.501" stroke="black"/>
<line x1="2426" y1="120.501" x2="1" y2="120.501" stroke="black"/>
<line x1="2426" y1="132.501" x2="1" y2="132.501" stroke="black"/>
<line x1="2426" y1="144.501" x2="1" y2="144.501" stroke="black"/>
<line x1="2426" y1="156.501" x2="1" y2="156.501" stroke="black"/>
<line x1="2426" y1="168.501" x2="1" y2="168.501" stroke="black"/>
<line x1="2426" y1="180.501" x2="1" y2="180.501" stroke="black"/>
<line x1="2426" y1="192.501" x2="1" y2="192.501" stroke="black"/>
<line x1="2426" y1="204.502" x2="1" y2="204.501" stroke="black"/>
<line x1="2426" y1="216.502" x2="1" y2="216.502" stroke="black"/>
<line x1="2426" y1="228.502" x2="1" y2="228.502" stroke="black"/>
<line x1="2426" y1="240.502" x2="1" y2="240.502" stroke="black"/>
<line x1="2426" y1="252.502" x2="1" y2="252.502" stroke="black"/>
<line x1="2426" y1="264.502" x2="1" y2="264.502" stroke="black"/>
<line x1="2426" y1="276.502" x2="1" y2="276.502" stroke="black"/>
<line x1="2426" y1="288.502" x2="1" y2="288.502" stroke="black"/>
<line x1="2426" y1="300.502" x2="1" y2="300.502" stroke="black"/>
<line x1="2426" y1="312.502" x2="1" y2="312.502" stroke="black"/>
<line x1="2426" y1="324.502" x2="1" y2="324.502" stroke="black"/>
<line x1="2426" y1="336.503" x2="1" y2="336.502" stroke="black"/>
<line x1="2426" y1="348.503" x2="1" y2="348.503" stroke="black"/>
<line x1="2426" y1="360.503" x2="1" y2="360.503" stroke="black"/>
<line x1="2426" y1="372.503" x2="1" y2="372.503" stroke="black"/>
<line x1="2426" y1="384.503" x2="1" y2="384.503" stroke="black"/>
<line x1="2426" y1="396.503" x2="1" y2="396.503" stroke="black"/>
<line x1="2426" y1="408.503" x2="1" y2="408.503" stroke="black"/>
<line x1="2426" y1="420.503" x2="1" y2="420.503" stroke="black"/>
<line x1="2426" y1="432.503" x2="1" y2="432.503" stroke="black"/>
<line x1="2426" y1="444.503" x2="1" y2="444.503" stroke="black"/>
<line x1="2426" y1="456.503" x2="1" y2="456.503" stroke="black"/>
<line x1="2426" y1="468.504" x2="1" y2="468.503" stroke="black"/>
<line x1="2426" y1="480.504" x2="1" y2="480.504" stroke="black"/>
<line x1="2426" y1="492.504" x2="1" y2="492.504" stroke="black"/>
<line x1="2426" y1="504.504" x2="1" y2="504.504" stroke="black"/>
<line x1="2426" y1="516.504" x2="1" y2="516.504" stroke="black"/>
<line x1="2426" y1="528.504" x2="1" y2="528.504" stroke="black"/>
<line x1="2426" y1="540.504" x2="1" y2="540.504" stroke="black"/>
<line x1="2426" y1="552.504" x2="1" y2="552.504" stroke="black"/>
<line x1="2426" y1="564.504" x2="1" y2="564.504" stroke="black"/>
<line x1="2426" y1="576.504" x2="1" y2="576.504" stroke="black"/>
<line x1="2426" y1="588.504" x2="1" y2="588.504" stroke="black"/>
<line x1="2426" y1="600.504" x2="1" y2="600.504" stroke="black"/>
<line x1="2426" y1="612.504" x2="1" y2="612.504" stroke="black"/>
<line x1="2426" y1="624.504" x2="1" y2="624.504" stroke="black"/>
<line x1="2426" y1="636.505" x2="1" y2="636.504" stroke="black"/>
<line x1="2426" y1="648.505" x2="1" y2="648.505" stroke="black"/>
<line x1="2426" y1="660.505" x2="1" y2="660.505" stroke="black"/>
<line x1="2426" y1="672.505" x2="1" y2="672.505" stroke="black"/>
<line x1="2426" y1="684.505" x2="1" y2="684.505" stroke="black"/>
<line x1="2426" y1="696.505" x2="1" y2="696.505" stroke="black"/>
<line x1="2426" y1="708.505" x2="1" y2="708.505" stroke="black"/>
<line x1="2426" y1="720.505" x2="1" y2="720.505" stroke="black"/>
<line x1="2426" y1="732.505" x2="1" y2="732.505" stroke="black"/>
<line x1="2426" y1="744.505" x2="1" y2="744.505" stroke="black"/>
<line x1="2426" y1="756.505" x2="1" y2="756.505" stroke="black"/>
<line x1="2426" y1="768.505" x2="1" y2="768.505" stroke="black"/>
<line x1="2426" y1="780.505" x2="1" y2="780.505" stroke="black"/>
<line x1="2426" y1="792.505" x2="1" y2="792.505" stroke="black"/>
<line x1="2426" y1="804.505" x2="1" y2="804.505" stroke="black"/>
<line x1="2426" y1="816.505" x2="1" y2="816.505" stroke="black"/>
<line x1="2426" y1="828.505" x2="1" y2="828.505" stroke="black"/>
<line x1="2426" y1="840.506" x2="1" y2="840.506" stroke="black"/>
<line x1="2426" y1="852.506" x2="1" y2="852.506" stroke="black"/>
<line x1="2426" y1="864.506" x2="1" y2="864.506" stroke="black"/>
<line x1="2426" y1="876.506" x2="1" y2="876.506" stroke="black"/>
<line x1="2426" y1="888.506" x2="1" y2="888.506" stroke="black"/>
<line x1="2426" y1="900.506" x2="1" y2="900.506" stroke="black"/>
<line x1="2426" y1="912.506" x2="1" y2="912.506" stroke="black"/>
<line x1="2426" y1="924.506" x2="1" y2="924.506" stroke="black"/>
<line x1="2426" y1="936.506" x2="1" y2="936.506" stroke="black"/>
<line x1="2426" y1="948.506" x2="1" y2="948.506" stroke="black"/>
<line x1="2426" y1="960.506" x2="1" y2="960.506" stroke="black"/>
<line x1="2426" y1="972.506" x2="1" y2="972.506" stroke="black"/>
<line x1="2426" y1="984.506" x2="1" y2="984.506" stroke="black"/>
<line x1="2426" y1="996.506" x2="1" y2="996.506" stroke="black"/>
<line x1="2426" y1="1008.51" x2="1" y2="1008.51" stroke="black"/>
<line x1="2426" y1="1020.51" x2="1" y2="1020.51" stroke="black"/>
<line x1="2426" y1="1032.51" x2="1" y2="1032.51" stroke="black"/>
<line x1="2426" y1="1044.51" x2="1" y2="1044.51" stroke="black"/>
<line x1="2426" y1="1056.51" x2="1" y2="1056.51" stroke="black"/>
<line x1="2426" y1="1068.51" x2="1" y2="1068.51" stroke="black"/>
<line x1="2426" y1="1080.51" x2="1" y2="1080.51" stroke="black"/>
<line x1="2426" y1="1092.51" x2="1" y2="1092.51" stroke="black"/>
<line x1="2426" y1="1104.51" x2="1" y2="1104.51" stroke="black"/>
<line x1="2426" y1="1116.51" x2="1" y2="1116.51" stroke="black"/>
<line x1="2426" y1="1128.51" x2="1" y2="1128.51" stroke="black"/>
<line x1="2426" y1="1140.51" x2="1" y2="1140.51" stroke="black"/>
<line x1="2426" y1="1152.51" x2="1" y2="1152.51" stroke="black"/>
<line x1="2426" y1="1164.51" x2="1" y2="1164.51" stroke="black"/>
<line x1="2426" y1="1176.51" x2="1" y2="1176.51" stroke="black"/>
<line x1="2426" y1="1188.51" x2="1" y2="1188.51" stroke="black"/>
<line x1="2426" y1="1200.51" x2="1" y2="1200.51" stroke="black"/>
<line x1="2426" y1="1212.51" x2="1" y2="1212.51" stroke="black"/>
<line x1="2426" y1="1224.51" x2="1" y2="1224.51" stroke="black"/>
<line x1="2426" y1="1236.51" x2="1" y2="1236.51" stroke="black"/>
<line x1="2426" y1="1248.51" x2="1" y2="1248.51" stroke="black"/>
<line x1="2426" y1="1260.51" x2="1" y2="1260.51" stroke="black"/>
<line x1="2426" y1="1272.51" x2="1" y2="1272.51" stroke="black"/>
<line x1="2426" y1="1284.51" x2="1" y2="1284.51" stroke="black"/>
<line x1="2426" y1="1296.51" x2="1" y2="1296.51" stroke="black"/>
<line x1="2426" y1="1308.51" x2="1" y2="1308.51" stroke="black"/>
<line x1="2426" y1="1320.51" x2="1" y2="1320.51" stroke="black"/>
<line x1="2426" y1="1332.51" x2="1" y2="1332.51" stroke="black"/>
<line x1="2426" y1="1344.51" x2="1" y2="1344.51" stroke="black"/>
<line x1="2426" y1="1356.51" x2="1" y2="1356.51" stroke="black"/>
<line x1="2426" y1="1368.51" x2="1" y2="1368.51" stroke="black"/>
<line x1="2426" y1="1380.51" x2="1" y2="1380.51" stroke="black"/>
<line x1="2426" y1="1392.51" x2="1" y2="1392.51" stroke="black"/>
<line x1="2426" y1="1404.51" x2="1" y2="1404.51" stroke="black"/>
<line x1="2426" y1="1416.51" x2="1" y2="1416.51" stroke="black"/>
<line x1="2426" y1="1428.51" x2="1" y2="1428.51" stroke="black"/>
<line x1="2426" y1="1440.51" x2="1" y2="1440.51" stroke="black"/>
<line x1="2426" y1="1452.51" x2="1" y2="1452.51" stroke="black"/>
<line x1="0.5" y1="1459" x2="0.500064" y2="-2.18556e-08" stroke="black"/>
<line x1="12.5001" y1="1459" x2="12.5001" y2="-2.18556e-08" stroke="black"/>
<line x1="24.5001" y1="1459" x2="24.5002" y2="-2.18556e-08" stroke="black"/>
<line x1="36.5002" y1="1459" x2="36.5002" y2="-2.18556e-08" stroke="black"/>
<line x1="48.5002" y1="1459" x2="48.5003" y2="-2.18556e-08" stroke="black"/>
<line x1="60.5003" y1="1459" x2="60.5004" y2="-2.18556e-08" stroke="black"/>
<line x1="72.5004" y1="1459" x2="72.5004" y2="-2.18556e-08" stroke="black"/>
<line x1="84.5004" y1="1459" x2="84.5005" y2="-2.18556e-08" stroke="black"/>
<line x1="96.5005" y1="1459" x2="96.5005" y2="-2.18556e-08" stroke="black"/>
<line x1="108.501" y1="1459" x2="108.501" y2="-2.18556e-08" stroke="black"/>
<line x1="120.501" y1="1459" x2="120.501" y2="-2.18556e-08" stroke="black"/>
<line x1="132.501" y1="1459" x2="132.501" y2="-2.18556e-08" stroke="black"/>
<line x1="144.501" y1="1459" x2="144.501" y2="-2.18556e-08" stroke="black"/>
<line x1="156.501" y1="1459" x2="156.501" y2="-2.18556e-08" stroke="black"/>
<line x1="168.501" y1="1459" x2="168.501" y2="-2.18556e-08" stroke="black"/>
<line x1="180.501" y1="1459" x2="180.501" y2="-2.18556e-08" stroke="black"/>
<line x1="192.501" y1="1459" x2="192.501" y2="-2.18556e-08" stroke="black"/>
<line x1="204.501" y1="1459" x2="204.501" y2="-2.18556e-08" stroke="black"/>
<line x1="216.501" y1="1459" x2="216.501" y2="-2.18556e-08" stroke="black"/>
<line x1="228.501" y1="1459" x2="228.501" y2="-2.18556e-08" stroke="black"/>
<line x1="240.501" y1="1459" x2="240.501" y2="-2.18556e-08" stroke="black"/>
<line x1="252.501" y1="1459" x2="252.501" y2="-2.18556e-08" stroke="black"/>
<line x1="264.501" y1="1459" x2="264.501" y2="-2.18556e-08" stroke="black"/>
<line x1="276.501" y1="1459" x2="276.502" y2="-2.18556e-08" stroke="black"/>
<line x1="288.501" y1="1459" x2="288.502" y2="-2.18556e-08" stroke="black"/>
<line x1="300.502" y1="1459" x2="300.502" y2="-2.18556e-08" stroke="black"/>
<line x1="312.502" y1="1459" x2="312.502" y2="-2.18556e-08" stroke="black"/>
<line x1="324.502" y1="1459" x2="324.502" y2="-2.18556e-08" stroke="black"/>
<line x1="336.502" y1="1459" x2="336.502" y2="-2.18556e-08" stroke="black"/>
<line x1="348.502" y1="1459" x2="348.502" y2="-2.18556e-08" stroke="black"/>
<line x1="360.502" y1="1459" x2="360.502" y2="-2.18556e-08" stroke="black"/>
<line x1="372.502" y1="1459" x2="372.502" y2="-2.18556e-08" stroke="black"/>
<line x1="384.502" y1="1459" x2="384.502" y2="-2.18556e-08" stroke="black"/>
<line x1="396.502" y1="1459" x2="396.502" y2="-2.18556e-08" stroke="black"/>
<line x1="408.502" y1="1459" x2="408.502" y2="-2.18556e-08" stroke="black"/>
<line x1="420.502" y1="1459" x2="420.502" y2="-2.18556e-08" stroke="black"/>
<line x1="432.502" y1="1459" x2="432.502" y2="-2.18556e-08" stroke="black"/>
<line x1="444.502" y1="1459" x2="444.502" y2="-2.18556e-08" stroke="black"/>
<line x1="456.502" y1="1459" x2="456.502" y2="-2.18556e-08" stroke="black"/>
<line x1="468.502" y1="1459" x2="468.503" y2="-2.18556e-08" stroke="black"/>
<line x1="480.502" y1="1459" x2="480.503" y2="-2.18556e-08" stroke="black"/>
<line x1="492.503" y1="1459" x2="492.503" y2="-2.18556e-08" stroke="black"/>
<line x1="504.503" y1="1459" x2="504.503" y2="-2.18556e-08" stroke="black"/>
<line x1="516.503" y1="1459" x2="516.503" y2="-2.18556e-08" stroke="black"/>
<line x1="528.503" y1="1459" x2="528.503" y2="-2.18556e-08" stroke="black"/>
<line x1="540.503" y1="1459" x2="540.503" y2="-2.18556e-08" stroke="black"/>
<line x1="552.503" y1="1459" x2="552.503" y2="-2.18556e-08" stroke="black"/>
<line x1="564.503" y1="1459" x2="564.503" y2="-2.18556e-08" stroke="black"/>
<line x1="576.503" y1="1459" x2="576.503" y2="-2.18556e-08" stroke="black"/>
<line x1="588.503" y1="1459" x2="588.503" y2="-2.18556e-08" stroke="black"/>
<line x1="600.503" y1="1459" x2="600.503" y2="-2.18556e-08" stroke="black"/>
<line x1="612.503" y1="1459" x2="612.503" y2="-2.18556e-08" stroke="black"/>
<line x1="624.503" y1="1459" x2="624.503" y2="-2.18556e-08" stroke="black"/>
<line x1="636.503" y1="1459" x2="636.503" y2="-2.18556e-08" stroke="black"/>
<line x1="648.503" y1="1459" x2="648.503" y2="-2.18556e-08" stroke="black"/>
<line x1="660.503" y1="1459" x2="660.503" y2="-2.18556e-08" stroke="black"/>
<line x1="672.503" y1="1459" x2="672.503" y2="-2.18556e-08" stroke="black"/>
<line x1="684.504" y1="1459" x2="684.504" y2="-2.18556e-08" stroke="black"/>
<line x1="696.504" y1="1459" x2="696.504" y2="-2.18556e-08" stroke="black"/>
<line x1="708.504" y1="1459" x2="708.504" y2="-2.18556e-08" stroke="black"/>
<line x1="720.504" y1="1459" x2="720.504" y2="-2.18556e-08" stroke="black"/>
<line x1="732.504" y1="1459" x2="732.504" y2="-2.18556e-08" stroke="black"/>
<line x1="744.504" y1="1459" x2="744.504" y2="-2.18556e-08" stroke="black"/>
<line x1="756.504" y1="1459" x2="756.504" y2="-2.18556e-08" stroke="black"/>
<line x1="768.504" y1="1459" x2="768.504" y2="-2.18556e-08" stroke="black"/>
<line x1="780.504" y1="1459" x2="780.504" y2="-2.18556e-08" stroke="black"/>
<line x1="792.504" y1="1459" x2="792.504" y2="-2.18556e-08" stroke="black"/>
<line x1="804.504" y1="1459" x2="804.504" y2="-2.18556e-08" stroke="black"/>
<line x1="816.504" y1="1459" x2="816.504" y2="-2.18556e-08" stroke="black"/>
<line x1="828.504" y1="1459" x2="828.504" y2="-2.18556e-08" stroke="black"/>
<line x1="840.504" y1="1459" x2="840.504" y2="-2.18556e-08" stroke="black"/>
<line x1="852.504" y1="1459" x2="852.504" y2="-2.18556e-08" stroke="black"/>
<line x1="864.504" y1="1459" x2="864.504" y2="-2.18556e-08" stroke="black"/>
<line x1="876.505" y1="1459" x2="876.505" y2="-2.18556e-08" stroke="black"/>
<line x1="888.505" y1="1459" x2="888.505" y2="-2.18556e-08" stroke="black"/>
<line x1="900.505" y1="1459" x2="900.505" y2="-2.18556e-08" stroke="black"/>
<line x1="912.505" y1="1459" x2="912.505" y2="-2.18556e-08" stroke="black"/>
<line x1="924.505" y1="1459" x2="924.505" y2="-2.18556e-08" stroke="black"/>
<line x1="936.505" y1="1459" x2="936.505" y2="-2.18556e-08" stroke="black"/>
<line x1="948.505" y1="1459" x2="948.505" y2="-2.18556e-08" stroke="black"/>
<line x1="960.505" y1="1459" x2="960.505" y2="-2.18556e-08" stroke="black"/>
<line x1="972.505" y1="1459" x2="972.505" y2="-2.18556e-08" stroke="black"/>
<line x1="984.505" y1="1459" x2="984.505" y2="-2.18556e-08" stroke="black"/>
<line x1="996.505" y1="1459" x2="996.505" y2="-2.18556e-08" stroke="black"/>
<line x1="1008.51" y1="1459" x2="1008.51" y2="-2.18556e-08" stroke="black"/>
<line x1="1020.51" y1="1459" x2="1020.51" y2="-2.18556e-08" stroke="black"/>
<line x1="1032.51" y1="1459" x2="1032.51" y2="-2.18556e-08" stroke="black"/>
<line x1="1044.51" y1="1459" x2="1044.51" y2="-2.18556e-08" stroke="black"/>
<line x1="1056.51" y1="1459" x2="1056.51" y2="-2.18556e-08" stroke="black"/>
<line x1="1068.51" y1="1459" x2="1068.51" y2="-2.18556e-08" stroke="black"/>
<line x1="1080.51" y1="1459" x2="1080.51" y2="-2.18556e-08" stroke="black"/>
<line x1="1092.51" y1="1459" x2="1092.51" y2="-2.18556e-08" stroke="black"/>
<line x1="1104.51" y1="1459" x2="1104.51" y2="-2.18556e-08" stroke="black"/>
<line x1="1116.51" y1="1459" x2="1116.51" y2="-2.18556e-08" stroke="black"/>
<line x1="1128.51" y1="1459" x2="1128.51" y2="-2.18556e-08" stroke="black"/>
<line x1="1140.51" y1="1459" x2="1140.51" y2="-2.18556e-08" stroke="black"/>
<line x1="1152.51" y1="1459" x2="1152.51" y2="-2.18556e-08" stroke="black"/>
<line x1="1164.51" y1="1459" x2="1164.51" y2="-2.18556e-08" stroke="black"/>
<line x1="1176.51" y1="1459" x2="1176.51" y2="-2.18556e-08" stroke="black"/>
<line x1="1188.51" y1="1459" x2="1188.51" y2="-2.18556e-08" stroke="black"/>
<line x1="1200.51" y1="1459" x2="1200.51" y2="-2.18556e-08" stroke="black"/>
<line x1="1212.51" y1="1459" x2="1212.51" y2="-2.18556e-08" stroke="black"/>
<line x1="1224.51" y1="1459" x2="1224.51" y2="-2.18556e-08" stroke="black"/>
<line x1="1236.51" y1="1459" x2="1236.51" y2="-2.18556e-08" stroke="black"/>
<line x1="1248.51" y1="1459" x2="1248.51" y2="-2.18556e-08" stroke="black"/>
<line x1="1260.51" y1="1459" x2="1260.51" y2="-2.18556e-08" stroke="black"/>
<line x1="1272.51" y1="1459" x2="1272.51" y2="-2.18556e-08" stroke="black"/>
<line x1="1284.51" y1="1459" x2="1284.51" y2="-2.18556e-08" stroke="black"/>
<line x1="1296.51" y1="1459" x2="1296.51" y2="-2.18556e-08" stroke="black"/>
<line x1="1308.51" y1="1459" x2="1308.51" y2="-2.18556e-08" stroke="black"/>
<line x1="1320.51" y1="1459" x2="1320.51" y2="-2.18556e-08" stroke="black"/>
<line x1="1332.51" y1="1459" x2="1332.51" y2="-2.18556e-08" stroke="black"/>
<line x1="1344.51" y1="1459" x2="1344.51" y2="-2.18556e-08" stroke="black"/>
<line x1="1356.51" y1="1459" x2="1356.51" y2="-2.18556e-08" stroke="black"/>
<line x1="1368.51" y1="1459" x2="1368.51" y2="-2.18556e-08" stroke="black"/>
<line x1="1380.51" y1="1459" x2="1380.51" y2="-2.18556e-08" stroke="black"/>
<line x1="1392.51" y1="1459" x2="1392.51" y2="-2.18556e-08" stroke="black"/>
<line x1="1404.51" y1="1459" x2="1404.51" y2="-2.18556e-08" stroke="black"/>
<line x1="1416.51" y1="1459" x2="1416.51" y2="-2.18556e-08" stroke="black"/>
<line x1="1428.51" y1="1459" x2="1428.51" y2="-2.18556e-08" stroke="black"/>
<line x1="1440.51" y1="1459" x2="1440.51" y2="-2.18556e-08" stroke="black"/>
<line x1="1452.51" y1="1459" x2="1452.51" y2="-2.18556e-08" stroke="black"/>
<line x1="1464.51" y1="1459" x2="1464.51" y2="-2.18556e-08" stroke="black"/>
<line x1="1476.51" y1="1459" x2="1476.51" y2="-2.18556e-08" stroke="black"/>
<line x1="1488.51" y1="1459" x2="1488.51" y2="-2.18556e-08" stroke="black"/>
<line x1="1500.51" y1="1459" x2="1500.51" y2="-2.18556e-08" stroke="black"/>
<line x1="1512.51" y1="1459" x2="1512.51" y2="-2.18556e-08" stroke="black"/>
<line x1="1524.51" y1="1459" x2="1524.51" y2="-2.18556e-08" stroke="black"/>
<line x1="1536.51" y1="1459" x2="1536.51" y2="-2.18556e-08" stroke="black"/>
<line x1="1548.51" y1="1459" x2="1548.51" y2="-2.18556e-08" stroke="black"/>
<line x1="1560.51" y1="1459" x2="1560.51" y2="-2.18556e-08" stroke="black"/>
<line x1="1572.51" y1="1459" x2="1572.51" y2="-2.18556e-08" stroke="black"/>
<line x1="1584.51" y1="1459" x2="1584.51" y2="-2.18556e-08" stroke="black"/>
<line x1="1596.51" y1="1459" x2="1596.51" y2="-2.18556e-08" stroke="black"/>
<line x1="1608.51" y1="1459" x2="1608.51" y2="-2.18556e-08" stroke="black"/>
<line x1="1620.51" y1="1459" x2="1620.51" y2="-2.18556e-08" stroke="black"/>
<line x1="1632.51" y1="1459" x2="1632.51" y2="-2.18556e-08" stroke="black"/>
<line x1="1644.51" y1="1459" x2="1644.51" y2="-2.18556e-08" stroke="black"/>
<line x1="1656.51" y1="1459" x2="1656.51" y2="-2.18556e-08" stroke="black"/>
<line x1="1668.51" y1="1459" x2="1668.51" y2="-2.18556e-08" stroke="black"/>
<line x1="1680.51" y1="1459" x2="1680.51" y2="-2.18556e-08" stroke="black"/>
<line x1="1692.51" y1="1459" x2="1692.51" y2="-2.18556e-08" stroke="black"/>
<line x1="1704.51" y1="1459" x2="1704.51" y2="-2.18556e-08" stroke="black"/>
<line x1="1716.51" y1="1459" x2="1716.51" y2="-2.18556e-08" stroke="black"/>
<line x1="1728.51" y1="1459" x2="1728.51" y2="-2.18556e-08" stroke="black"/>
<line x1="1740.51" y1="1459" x2="1740.51" y2="-2.18556e-08" stroke="black"/>
<line x1="1752.51" y1="1459" x2="1752.51" y2="-2.18556e-08" stroke="black"/>
<line x1="1764.51" y1="1459" x2="1764.51" y2="-2.18556e-08" stroke="black"/>
<line x1="1776.51" y1="1459" x2="1776.51" y2="-2.18556e-08" stroke="black"/>
<line x1="1788.51" y1="1459" x2="1788.51" y2="-2.18556e-08" stroke="black"/>
<line x1="1800.51" y1="1459" x2="1800.51" y2="-2.18556e-08" stroke="black"/>
<line x1="1812.51" y1="1459" x2="1812.51" y2="-2.18556e-08" stroke="black"/>
<line x1="1824.51" y1="1459" x2="1824.51" y2="-2.18556e-08" stroke="black"/>
<line x1="1836.51" y1="1459" x2="1836.51" y2="-2.18556e-08" stroke="black"/>
<line x1="1848.51" y1="1459" x2="1848.51" y2="-2.18556e-08" stroke="black"/>
<line x1="1860.51" y1="1459" x2="1860.51" y2="-2.18556e-08" stroke="black"/>
<line x1="1872.51" y1="1459" x2="1872.51" y2="-2.18556e-08" stroke="black"/>
<line x1="1884.51" y1="1459" x2="1884.51" y2="-2.18556e-08" stroke="black"/>
<line x1="1896.51" y1="1459" x2="1896.51" y2="-2.18556e-08" stroke="black"/>
<line x1="1908.51" y1="1459" x2="1908.51" y2="-2.18556e-08" stroke="black"/>
<line x1="1920.51" y1="1459" x2="1920.51" y2="-2.18556e-08" stroke="black"/>
<line x1="1932.51" y1="1459" x2="1932.51" y2="-2.18556e-08" stroke="black"/>
<line x1="1944.51" y1="1459" x2="1944.51" y2="-2.18556e-08" stroke="black"/>
<line x1="1956.51" y1="1459" x2="1956.51" y2="-2.18556e-08" stroke="black"/>
<line x1="1968.51" y1="1459" x2="1968.52" y2="-2.18556e-08" stroke="black"/>
<line x1="1980.52" y1="1459" x2="1980.52" y2="-2.18556e-08" stroke="black"/>
<line x1="1992.52" y1="1459" x2="1992.52" y2="-2.18556e-08" stroke="black"/>
<line x1="2004.52" y1="1459" x2="2004.52" y2="-2.18556e-08" stroke="black"/>
<line x1="2016.52" y1="1459" x2="2016.52" y2="-2.18556e-08" stroke="black"/>
<line x1="2028.52" y1="1459" x2="2028.52" y2="-2.18556e-08" stroke="black"/>
<line x1="2040.52" y1="1459" x2="2040.52" y2="-2.18556e-08" stroke="black"/>
<line x1="2052.52" y1="1459" x2="2052.52" y2="-2.18556e-08" stroke="black"/>
<line x1="2064.52" y1="1459" x2="2064.52" y2="-2.18556e-08" stroke="black"/>
<line x1="2076.52" y1="1459" x2="2076.52" y2="-2.18556e-08" stroke="black"/>
<line x1="2088.52" y1="1459" x2="2088.52" y2="-2.18556e-08" stroke="black"/>
<line x1="2100.52" y1="1459" x2="2100.52" y2="-2.18556e-08" stroke="black"/>
<line x1="2112.52" y1="1459" x2="2112.52" y2="-2.18556e-08" stroke="black"/>
<line x1="2124.52" y1="1459" x2="2124.52" y2="-2.18556e-08" stroke="black"/>
<line x1="2136.52" y1="1459" x2="2136.52" y2="-2.18556e-08" stroke="black"/>
<line x1="2148.52" y1="1459" x2="2148.52" y2="-2.18556e-08" stroke="black"/>
<line x1="2160.52" y1="1459" x2="2160.52" y2="-2.18556e-08" stroke="black"/>
<line x1="2172.52" y1="1459" x2="2172.52" y2="-2.18556e-08" stroke="black"/>
<line x1="2184.52" y1="1459" x2="2184.52" y2="-2.18556e-08" stroke="black"/>
<line x1="2196.52" y1="1459" x2="2196.52" y2="-2.18556e-08" stroke="black"/>
<line x1="2208.52" y1="1459" x2="2208.52" y2="-2.18556e-08" stroke="black"/>
<line x1="2220.52" y1="1459" x2="2220.52" y2="-2.18556e-08" stroke="black"/>
<line x1="2232.52" y1="1459" x2="2232.52" y2="-2.18556e-08" stroke="black"/>
<line x1="2244.52" y1="1459" x2="2244.52" y2="-2.18556e-08" stroke="black"/>
<line x1="2256.52" y1="1459" x2="2256.52" y2="-2.18556e-08" stroke="black"/>
<line x1="2268.52" y1="1459" x2="2268.52" y2="-2.18556e-08" stroke="black"/>
<line x1="2280.52" y1="1459" x2="2280.52" y2="-2.18556e-08" stroke="black"/>
<line x1="2292.52" y1="1459" x2="2292.52" y2="-2.18556e-08" stroke="black"/>
<line x1="2304.52" y1="1459" x2="2304.52" y2="-2.18556e-08" stroke="black"/>
<line x1="2316.52" y1="1459" x2="2316.52" y2="-2.18556e-08" stroke="black"/>
<line x1="2328.52" y1="1459" x2="2328.52" y2="-2.18556e-08" stroke="black"/>
<line x1="2340.52" y1="1459" x2="2340.52" y2="-2.18556e-08" stroke="black"/>
<line x1="2352.52" y1="1459" x2="2352.52" y2="-2.18556e-08" stroke="black"/>
<line x1="2364.52" y1="1459" x2="2364.52" y2="-2.18556e-08" stroke="black"/>
<line x1="2376.52" y1="1459" x2="2376.52" y2="-2.18556e-08" stroke="black"/>
<line x1="2388.52" y1="1459" x2="2388.52" y2="-2.18556e-08" stroke="black"/>
<line x1="2400.52" y1="1459" x2="2400.52" y2="-2.18556e-08" stroke="black"/>
<line x1="2412.52" y1="1459" x2="2412.52" y2="-2.18556e-08" stroke="black"/>
<line x1="2424.52" y1="1459" x2="2424.52" y2="-2.18556e-08" stroke="black"/>
</svg>
