<?xml version="1.0" encoding="utf-8"?>
<!-- Generator: Adobe Illustrator 26.0.3, SVG Export Plug-In . SVG Version: 6.00 Build 0)  -->
<svg version="1.1" id="Layer_1" xmlns="http://www.w3.org/2000/svg" xmlns:xlink="http://www.w3.org/1999/xlink" x="0px" y="0px"
	 viewBox="0 0 1224 792" style="enable-background:new 0 0 1224 792;" xml:space="preserve">
<style type="text/css">
	.st0{fill:#190A2D;}
	.st1{fill:#FFFFFF;}
</style>
<metadata><?xpacket begin="﻿" id="W5M0MpCehiHzreSzNTczkc9d"?>
<x:xmpmeta xmlns:x="adobe:ns:meta/" x:xmptk="Adobe XMP Core 7.1-c000 79.a8731b9, 2021/09/09-00:37:38        ">
   <rdf:RDF xmlns:rdf="http://www.w3.org/1999/02/22-rdf-syntax-ns#">
      <rdf:Description rdf:about=""
            xmlns:dc="http://purl.org/dc/elements/1.1/"
            xmlns:xmp="http://ns.adobe.com/xap/1.0/"
            xmlns:xmpGImg="http://ns.adobe.com/xap/1.0/g/img/"
            xmlns:xmpMM="http://ns.adobe.com/xap/1.0/mm/"
            xmlns:stRef="http://ns.adobe.com/xap/1.0/sType/ResourceRef#"
            xmlns:stEvt="http://ns.adobe.com/xap/1.0/sType/ResourceEvent#"
            xmlns:illustrator="http://ns.adobe.com/illustrator/1.0/"
            xmlns:pdf="http://ns.adobe.com/pdf/1.3/"
            xmlns:xmpTPg="http://ns.adobe.com/xap/1.0/t/pg/"
            xmlns:stDim="http://ns.adobe.com/xap/1.0/sType/Dimensions#"
            xmlns:xmpG="http://ns.adobe.com/xap/1.0/g/">
         <dc:format>image/svg+xml</dc:format>
         <dc:title>
            <rdf:Alt>
               <rdf:li xml:lang="x-default">Print</rdf:li>
            </rdf:Alt>
         </dc:title>
         <xmp:MetadataDate>2022-03-08T19:15:23-06:00</xmp:MetadataDate>
         <xmp:ModifyDate>2022-03-08T19:15:23-06:00</xmp:ModifyDate>
         <xmp:CreateDate>2022-03-08T19:15:23-06:00</xmp:CreateDate>
         <xmp:CreatorTool>Adobe Illustrator 26.0 (Macintosh)</xmp:CreatorTool>
         <xmp:Thumbnails>
            <rdf:Alt>
               <rdf:li rdf:parseType="Resource">
                  <xmpGImg:width>256</xmpGImg:width>
                  <xmpGImg:height>68</xmpGImg:height>
                  <xmpGImg:format>JPEG</xmpGImg:format>
                  <xmpGImg:image>/9j/4AAQSkZJRgABAgEASABIAAD/7QAsUGhvdG9zaG9wIDMuMAA4QklNA+0AAAAAABAASAAAAAEA&#xA;AQBIAAAAAQAB/+4ADkFkb2JlAGTAAAAAAf/bAIQABgQEBAUEBgUFBgkGBQYJCwgGBggLDAoKCwoK&#xA;DBAMDAwMDAwQDA4PEA8ODBMTFBQTExwbGxscHx8fHx8fHx8fHwEHBwcNDA0YEBAYGhURFRofHx8f&#xA;Hx8fHx8fHx8fHx8fHx8fHx8fHx8fHx8fHx8fHx8fHx8fHx8fHx8fHx8fHx8f/8AAEQgARAEAAwER&#xA;AAIRAQMRAf/EAaIAAAAHAQEBAQEAAAAAAAAAAAQFAwIGAQAHCAkKCwEAAgIDAQEBAQEAAAAAAAAA&#xA;AQACAwQFBgcICQoLEAACAQMDAgQCBgcDBAIGAnMBAgMRBAAFIRIxQVEGE2EicYEUMpGhBxWxQiPB&#xA;UtHhMxZi8CRygvElQzRTkqKyY3PCNUQnk6OzNhdUZHTD0uIIJoMJChgZhJRFRqS0VtNVKBry4/PE&#xA;1OT0ZXWFlaW1xdXl9WZ2hpamtsbW5vY3R1dnd4eXp7fH1+f3OEhYaHiImKi4yNjo+Ck5SVlpeYmZ&#xA;qbnJ2en5KjpKWmp6ipqqusra6voRAAICAQIDBQUEBQYECAMDbQEAAhEDBCESMUEFURNhIgZxgZEy&#xA;obHwFMHR4SNCFVJicvEzJDRDghaSUyWiY7LCB3PSNeJEgxdUkwgJChgZJjZFGidkdFU38qOzwygp&#xA;0+PzhJSktMTU5PRldYWVpbXF1eX1RlZmdoaWprbG1ub2R1dnd4eXp7fH1+f3OEhYaHiImKi4yNjo&#xA;+DlJWWl5iZmpucnZ6fkqOkpaanqKmqq6ytrq+v/aAAwDAQACEQMRAD8A9U4q7FXYq7FXYq7FXYq7&#xA;FXYq7FXYq7FXYq7FXYq7FXYq7FUDr2tWWh6Jf6zfNxtNOt5bqcileESFyFr3NKD3wgWrAv8Alamu&#xA;6HPpE3nvSLXQ9G1zjHaahBdy3RhuHQSRwXMf1ePiWBI5BuIKntvk+C+Sael5WhxIAJJoBuScVeSt&#xA;5k/MfVPL2t+fNI1iztdBtBdz6LpE9kJUurOx5gTSXAkjlQ3HplloKAU2yyhdJZt+XvnzSPPPla28&#xA;w6WrxQzFo5reWnqRSxmjo3EkHxB7gj5ZGUaNIZJkVYl5l/MEaXqzaPpWj3nmHVbeD65qFtY+kotr&#xA;etFMjzPGpkk39OJas1D07yEU0h9R/NHSpdH0a58rqmvah5jk9PRbNJPSDcBWeWduLtFHbgfvfgJB&#xA;+GlThEO9aRPkb8xNO80S6jpsiJY+YtGme31bSRL6xiZHKB0l4RiSNuOzBfmAcEo0hI9Vv5PzF1Y+&#xA;X9HlceTLGX/nY9XhYot7Ih2062lU/EhP+9Dp2+AHc5Ienfql5V+Wn5o61F+YvmXyr5C0ldT8szSS&#xA;yaFZV9K2tZVaKJrh5vi9O0YK8nBQSSQFAZjlkobAlJDLPN9/5V0vVLTTfzC12+82eaNQkRLfyrpR&#xA;e3s42mIEY+rQvH8PxbNcSMzDcDIxvpshUj1+3/Lj86dL8jaYVTyn5lto5U04szGyvGMkamDkSVjm&#xA;aJap0qSR7iuKN9Ve25Uh2KuxV2KuxV2KpF5t88eVvKVh9d1+/js42r6MRq80pUVIiiQM7nxoNu+G&#xA;MSeSo3QNd07XtHs9W06QvaXsMc8PIcXCyqHUOp3U0PTEilTDArsVdirsVdirsVdirsVdirsVYF58&#xA;f/EnmDS/IUI52s3DVPMrDothbyAxQN73U6hf9RXycdhaXkX/ADlb5sl1rWdD/LfR+NxeSXEU91GK&#xA;Ei5mrFaxV7HjKzH2Zctwit0h9IaTb3ltpVnb3swuLyGCOO5uAKCSVUAdwD/MwJygsWJfmffXV5b2&#xA;XkrTJmh1XzSz28k6fattOjAa+uPYiI+mn+W4yUO/uSHnH/OQfmK8isdG/KLyTCTqWqpFDNa25p6V&#xA;ig4RQE/sq/CrknZFPL4WyeMfxFQ7Rvy3/LP8utD0vQ/POu3N/qWpyg2+kxXF2lubiYrGTDa2pUtv&#xA;RfVlG/8Ak9AmRkbC2rS/mHqP5a/mPqPkWO3n1fSb+2S88q2TSyXF0lzOFjW09WRnb0WlRz8X2BvW&#xA;mPDxC1a8++aNV/LPylDo2nt+k/zP86TvPdXMKlmE81Fd41FTxiqsNsntXsQWI4j5BUq03Q4PyG/K&#xA;+78z6lxuvPms0trcOeawyTDn6INTVY+BklYfbYAfynCTxmuiebGvy28gapZadq/5hfmXrM+haDrS&#xA;k38BYw3mpJM/rNG5SkqJMy/YjHOQbCi9ZSl0Cl6Hpv5sW2t/k35y1Ty7pQ0bStIWTSdBhj+3WSJI&#xA;424IOCMGnUhVJp498gYVIWikPpb+VfyM8jaVo1/eCx8z+Zq/XNVWD619Xl9PeZ4gyl4bZnVFUH4i&#xA;S1PtYm5nyXmwnSPO35d+V9TuLryHaaj+Yn5jX5ctrd1DKVV5NnZIuKyd/wBlakVHqAZMxJ57BLG/&#xA;KrXGkfnTpvmD82r76tfO73sokmR5IJlQG2NxHF6hiSpASPYjaoCDCd41FX2lmKxdirEPNPnLVrbX&#xA;7Lyz5YsYdU1+4Q3d4LmV4La0s1NBLPJGkrAysOEahSTuegyQjtZSo+TfzHj1bX9S8p63BFpfnDST&#xA;zuNOimNxFJbsqPHcQzFI6qVlWqkBh3GGUaF9Fpl97e2djaS3l7PHa2kCl57iZhHGiDqzMxAAHvkE&#xA;MAufPXmbzFbzXHlGKHSfLsKNJN5v1qNlgdFWvO0tS0LyJ39WQqnhyyfCBzS+cvzC8x/4jvB5c8m2&#xA;V1r93rM4tbvzdfLzu9RmiYMYLUkLHbWyMASicRSlaD7WREVuUh9Lfkx+W48heTY9OnkM2r3r/XNX&#xA;l5mRTcuoDKhIX4VCge/XMecrKCWeZBDsVY75q87WWg3Fpp8VpcatruoB2sdHsgjTukf25XaRkjii&#xA;UkAu7AeFTkhG1S6P82fKknlNvMUbSuY5lspNIQI1+t+0npLZGENtMXFACaU+KvHfDwG6TSI8o/mJ&#xA;p3mDUb/Rbm1l0bzHpjAXeiXrwm49NlV1mj9J5FkjIcfEp2P0VEo0ikD5x81anfal/gvyhLXX5wp1&#xA;TU1XnFpVq9azSHp9YdQfRj7n4jRepiOpS8jh/NHSvy6/N+fynoLX+teXZkWHVLRme9uv0uqMGa1Z&#xA;2qzyuESVSQOfLpTLODijZTTLvOuuiy0pdZ/NXWZNG026/wB4fJOjysJpF7rdXMRSadqH4wjJEvia&#xA;5GI/moS7Xdd0/wDKrzZ5Qu9EgbTvK3nECLV9BnLVtpAYyLpEZ39ORfrFJgux49zvhA4ge8K9o8wa&#xA;7p2gaJfa1qUnpWNhC087dTxQV4qO7MdlHc5UBaHnB14/l7+X+s+f/M8Y/wATa64u5rMncSuvCx08&#xA;Hrxt46Bj/rtk64jQS8Z/JTy/54vPO115+1bytqGt6nKzzafJOUsrUzyn453muCPhRTxjWNH+jiMt&#xA;yEVVpL6H+rfnHqH95faJ5fjbfhBBcanMo/lMkj2Udf8AnnlPpQgLS0u/JqeZvPnnjUY9RuraEW9p&#xA;dxxLBx0+H40iSMMwWSe4kII5fEeGPOgFYX+UosNM0jWPzr89zpb3+vyE28rgsLayaQRRRxgCv7wh&#xA;VH+Qq+LZOf8ANClkc/5S3us/nePPurXUVzoNhbW7aFaqxc+uqUqwPwhUkLSih3Yr4HI8dRpbTbS/&#xA;KflPTfzRvNc1XUIr7zrrSSPpdu4Cm1sIFEfGCOrUPA/HId2+Km3LASaroqprtv8Al35f/MGx8y67&#xA;dj/E2tCHSNDjnIf0hyIIt0A+AO0vxux70BHKhRZFBWvzb1r8ufL2n2PmPzjBHdz6Y8jaJZvV3kuW&#xA;UH93ETwLDiPjcUTrUVxgCdgofO2l2/5n/nZ5ln8z3mmRan5d0gv6WjXM8lrZspFTaW8kfFvXZafv&#xA;aih4liFouXmoCk8mf65Y+V9N/wCcZ/MEnkq3udPT65FcXdheNW6tb2G+tknhmDbhoxCBQ7kU8cgL&#xA;490dWtS/N38jfMnl7TPMPn7SzL5ktrcINJaGd2PIBy0IJWFopK8kMje3UYiEgaCaYTL+a/n7zpP/&#xA;AIY/KPy2PLmlseMv6NjSOUqdg81wixx24+RBr+2clwAbyK09C/K7/nFyz0bU4PMPnO9XWNXjf10s&#xA;Uq1ss1eQeV3+OZgd9wBXryyE8t7BBL3zKUJb5l8wWHl7Qb7W79iLSwiaVwv2nI2WNB3d2IVR3Jwg&#xA;WVefDWE/Lf8AL7VvPHmhVbzPrT/XL63qatdSLS009DueFvGAnegDNk64jQ5JeMfkbcvF5lv/AM1v&#xA;Ns01xe6hLPa6Hp9uhkvNRvZv776tAN2SJDw/kWu5HHLcnLhCS9p1i1e6tV81/mvNa6V5f06k1n5Z&#xA;WQzQLLUlHvWApdzjokaLwB6BjvlQ7ooePea/zsh/M3zXYeXntprH8t4LyCTWZRyEkkAlWNZLp0+G&#xA;GHm67V268uVKWjHwi+qaem/nNfaH5W/KXUbHVrC1tVM7Wvk6xsxxe3eNaW1wrjjxkjKtMWWlAeG5&#xA;+1XDeSAiPIf5qa7J+TOkeYNXtjfeZdRlbTtKtgAjX9z6rRwtQUCghC0jdAFZsZQHFS07WbPzHa3N&#xA;rY3Xn+5/5WPqUUs+j6PbJEmm+pHG0vpvbLDI/wBX/dlPVmevfrtiK7tlYv8AmPqtj+Tv6C1m01Of&#xA;UPOl/JXX4ZZGePVLcgmaSZGJWDhJRbdkHwj4aMoNJRHF7lG6d6l52Pkrytqv5neY7bj5m8zFINC0&#xA;aU/HBaopNpbMNitAWnuKU+I8eoGREbNBWJ/kb5PfTrHV/wA4fPknoxTtNqlrbsKIXbmzXvpdObeq&#xA;6QD/ACiR9pclkl/CElJPyy0n8yfzK/MvVPzFtJxoWn3JktTqfpqzpDwEQhtFYENKsShTJ0B367ZK&#xA;ZERSl635M89+RNNtPN+l+U7ZprLyfate6nq8jF/rd0VleVnlb45WJhNZGO/7PwgZVKJ2vqh5x+RW&#xA;gaJ5R8qX/wCcXnaU/Wbt3/R8silnCSyem0yqAWMk8jECg+xU9GOWZDZ4QkoLVfMf5aaf5qk88ebd&#xA;eTz35skYNo2gaShNhbU/uE9RwQRGSKV3rVuDNviAaobBWFeaZ/Nmr+dNL87fmdF+jtKmu7cRaXLJ&#xA;6FwLJZeTLBakPP6UYJZmKfF2PIjJigKCvpN9Y078yfNOmWWlTC78o6KsGsapcAEJc3cg56falXCt&#xA;SMf6RICP5ARlFcI80MW87f8AOTX5daV5mu9Ju9Em1ibRbj07e9RYHQTKpWYxmUhkKN8FR137UrKO&#xA;I0tMbl/5yp8+eYJWt/JHktriQHiHcT35qe5SBYeG3ixyXggcymlfyjrP/ORvmb8wLLQ/MV8+g6cI&#xA;hqGpW9vFapKloGKBeSrJLG0zgooZgerUPHARACwuyD/5yg87X3mDzJpn5ZeX1a5mE0T6hFEf725l&#xA;p6EB9kVubV2qR/LhxRoWVDOr3Ufyf1/8qPLtr5r1SKw0jTUtjNpRuPRmFxZQmB7SSFf37em1aog5&#xA;EgEbdYVIS2Q8/wDOf/OUdzMbTy9+V1iLS2jj+rpd3UKKyrGOMf1eIsYo40Ra8pR06qtN5xxdSmmM&#xA;+R9Cvl16bzjrPnuNfOUNZbCGxWbXJDM3w8LtrNbhPSZW9MohPwntSmSkdqrZVkPlD8yfP3n7/EXn&#xA;3QdcksAR+4sLRrdmjVqRw2/1t7dYohyryZuVKndiTjxACgqaaz+Tv5yebvONvqHmXT9S1Ty/afub&#xA;U3d1ptvem0jYlYmWOZ1WRv2pKGv2sAnEDZbe56dqvnXy/o1rYad5E0/StMtlCRwy6zFDFEu5NSlv&#xA;LU1qSd69cqIB6oeP/m9otz5ruWng1Ly55Vu7ph+lox5lR4L0xgBGmtzbwKZY+z9afRSyBrvPwSEu&#xA;07zf+WGn6L5f0DzpoeneYbbQBLBHrFjqaXM4DO8u8Ajs+cXJqBS7U8CepMTzCvoax1qyt/KWl3/k&#xA;LSbK60e6e3WO1jkaxWJbqSONW9OG3noU9XlKGClQMorfdCJ8vebNd1HXZtO1Dy7PplmYppbDUmlW&#xA;WKf6vKkUqsoVWhJMgaMPu68j2xIFIZRkVYBrAHm/8wbbQ1q+g+VGj1HWNqpNqLjlZWx8fRX9+48e&#xA;FcmNhfel4N+a2peaPzo/MoeVvKMRutD0NjF9ZrxthITxmupZKEBaqUj6kgfDXlTLoAQFlI2espo/&#xA;lT8kPJDeYr+KbWdWhiSxW5jjO3KrJbwj4ltbcvuzH7TbsWcitdmZpHN4Lqcn5gfm29z5w8zSTWXk&#xA;3TJFjQW6FkVppVhS3somZFlmd3VWdmoP2moAMuFR2HNL0+bQvKv5deWbfUfONrFpejwOs2k+SbeR&#xA;Lm6v7uL7NxqVxQC4kUsG4L+5j267DK7Mjsq/z3+YZv8A8g21Pz1pcEup+aJpv8N6WqkGFHJ+rTcv&#xA;tViT95zFOQKjbljGPq2Qm3kK181aN5LsvPXnu3D3ugaWLHyvoFvFwdBLxhjZ41BpdXX7uEAAcV7A&#xA;sQBKiaCpx+TP5c6tpuo3/nTzpOLnz3rq+pLAWDfU7VyCsKrU0PwgGmygBR0NYzl0HJSWC+Q/JU35&#xA;g/mM35l+dqQ6PdXRTylpd0eDXQhDPb0jahMaRRmTj+2wLfZrynKXCKCXpv5k+R/J2q+YdJ8y+dtR&#xA;QaFo6iCx0maiQSXlxJ9qQ1Jl5BUAjA3471FRlcZECggI/wDNvQPLWreU1h8z6p+ifKtnPHdasqHh&#xA;9YihB9O35DdVaUqaIpY0AWhNcYEg7c1D511T8wPOX5leYrbyh+Wumyab5S08kR6daO1kktuPtNeS&#xA;xFBHG9CAle/7TZeIiIs80s70zQPI3l/8kPP995YW+tbq9tZrTWtNvnRriyuYkaI2zcVjPFfWJqSe&#xA;SmvtkCSZC0Ifyf5q/Lvz3+U2j+XvzEn/AEJHokcU8IeX6pFe29oJLOOWFyB6gDBkdE39RdtsZAiV&#xA;hLFtS/Ob8uvKrHSvyg8qRPqsh9CHXbmFpZiW2/cJJzuHJPTmVFf2DkhAn6itLPL/AOQt9L5f1f8A&#xA;MH817m7gEEUl7+jGkC3VwUXkPXkbm0fqNRFQDn/q7YnJvUVt6P5h1iL8nPyMhjhC2/mnWE+FVBUi&#xA;+uUBmcL2W1j+BOw4op65ADil5I5oH/nFv8qrW08tyeb9dtI7jUNZIOnLcIshitUNVkXnWjSv8X+q&#xA;FPfHLPegpL2vzFrmleV/Lt7rF4BFYafEZGjjUAsSaLGij9qR2CqO5OVAWUMDbUp/y9/L/X/PnmRU&#xA;PmjV6Xl5BWqrO6+lY2CnulurBCf9dsnXEaHJLzf/AJxY8i3mr6tqX5na/W4upppo9Nkl3Z55STdX&#xA;PT/K4KR4v4ZZmlWwSU989/lP5O87fnLNaazIdBcWcM1uluojl1dviMsqSvyirBsjKIy9NyaUpGMy&#xA;IotNZdJ/5xj/AC5UpeJpX12HdkuCdTuww7+kfXeMmnZVGC5yXdItZ/5y98k6dH9V8s6Fc33D4YhJ&#xA;6dnBv04BBM/0FBkhhPVaSdfzf/5yX82Hj5Z8qfo63f8Aurn6ow6j/f8AesID/wADh4IDmU0FRfyr&#xA;/wCcovMlH13zd+io2NZYVvHjan/GKxQQmnhyGPHAcgthEW3/ADh2bqQT6/5vnu5j9r0reh/5GSyy&#xA;E/8AA4PG7gtshsv+cQvyxho11d6rev8AtepPEin5COFW/wCGweMUWm0f/OLX5NqgVtMuHI6u13PU&#xA;/PiwH4ZHxZLbOfJHkDyt5J0yXTfLlqbW1mlM8ytJJKWkIC8i0jMfsqBtkZSJ5oZDkVSLzt5oj8s+&#xA;W7rVfSNzdLxh0+yX7VxdzMI7eFR1+ORgD4Cp7YYiyrFx5K8yaf8Al/8A4b0u5CeYtfleTzBrwqRH&#xA;Ld/HfXK9Czcf3UKih+z0CkiXELtLF/OXnjyF+RflNPLflu2SXXpYucFpUFy7Lx+t3rjc1I2Xq3Re&#xA;K7iUYmZsrzY95C/NL8zf8Ivq/wCZGgSa15G1MypPqccEfrQwP9p5bVAvqWpqRy4bAdT8IMpQF7c0&#xA;0yArpWi+UpbJJ38xfk3q0bJHfWrNLd6MHIPxEVd7eN/iDU9SIj4gaZHmf6SHnXnf8lfOV3qFx528&#xA;xeYo/MnlOya2miu0kae4m0szJ6jBUVYkEduzSMUNDQkda5ZHIOQ5pt65+cv5gfl75Q0vStaubK01&#xA;fzBBE7+VLWiuqCYJ/pApskQ9NaMNzSi96VQiSgMY8t/85T6JD5Hiu/NtndQ+YRbtJax+gywai6MU&#xA;D28ijgg5j4uVAtDSp2yRxb7LTHPyh/Nzzdb3HmPz75q0e4vPLWrXEUV5rdqnI2Zt1f0o1hrU20Yk&#xA;IJUfCx3JZjkpwHIJISSx1/8AMX86Pzcg1Xy5MdL07y6/r6dLOC0FqiklDMq7PLcFaMo7bbquGhCO&#xA;68kV5t8r/nP+bP5kx6F5gsG0PTdIp6kiK5sYozQPPC7U9d5iPgofbajHEGMRYVNvzN/Kj89PNWva&#xA;T5YurxdS8p2LBbbWi0cZ9M7Ga9j5hpJ40+Gqr8XbdmwQnEC+qgvePIX5feWfI2iJpOg2wiQ0N1ct&#xA;8U9xIBT1JX7nwHQdgMplInmxYb+cv5S635l07UrryhqH6N1fVY4bfWrR2422oQQGsYkPFykqUAVx&#xA;1X4G2yUJ1zSC7y3+Rej3H5R6L5K85wRXd3pvryLd2rEPBJcXEkx9GUqD9mQK1RxNOh2xOT1WFtlP&#xA;kn8qvIfkpAdA0qOC6K8Xv5Ky3LA9f3r1YA91Wg9sjKZPNFoH80g1zd+TtJkX1bDUNeh+v29QPUjt&#xA;IJrxQwOxjWS3V3/1cMOqQ+fvMFzcfnp+ecGlWbs3lXSSyCVD8IsoWHrzg/zXElFUjsUr0OXD0R80&#xA;8n1xbW1va28VtbRrDbwIscMSAKqIg4qqgdAAKDMZixf8y9F1XU9At5dLgW9vNJv7XVE0yRuC3Ys5&#xA;PUMHPorN1QnbmFrtkondQ+cvz2/Mv/lZus+XfJXliK4j5XCi8tbqNoJF1CRvRWKVD09AFuR3HxHf&#xA;bL8ceHcsgH1J5V8uWHlry5p2g2Apa6bAkEbUALlR8UjAftO1Wb3OY5Nm2KD88+Q/LvnXRW0nW4S0&#xA;YPO2uYiEngk7SRPQ8T9FD3GGMiFeWeXP+cQ/y80+US6xeXmtENVYWYW0PGtQCIv3n3SDLDmKbere&#xA;XfIPkry4qjQ9Es7B12E0UKesf9aUgyN9LZWZE80J9kVdirsVdirsVdirsVef2JHnT8wG1H+88teT&#xA;5HgsD/uu51hlKTzL/MtpGxiU/wA7NT7OT5D3pQP54fnPp/5e6N9XtSlx5nvoydPtCOSxqTx9eYVH&#xA;wAg8R+0fYMQccOJQHlX5H/kjf+br/wD5WH+YXO9ivHNzZWVz8TXTHpPOD/ur+ROjf6lA1mTJWwSS&#xA;+ogiBOAUBAOPGm1OlKZjsXl2vflPqui6hceYfyxu49H1Gc87/wAvTjlpN9QbgxD+5cjbkn/C1Jyw&#xA;TvYpt5VafmxrH5ceYI7XWvKt5oWh6hK66xoDD1tPBkrzudMkagSrVLQBnjbehU5ZwcQ5ppmd7/zi&#xA;t5I1fzRDr6ahcR+X5Qsw0FE4rxI5COOYsGjiqfscajoCO0fGIFIt63qvk3ynq+kw6RqekWt3plsq&#xA;pbWssSskSqAq+lUfBRRT4aZUJEIR2naPpem6ZDpVhaRW2mwR+lFaRqBGqd149N67+OJKqWi+XtB0&#xA;O2e10XTrbTbaRzLJDaRJCjO3ViqBRXEklUwwK7FXYq7FXYq7FWFfmv5CvfOHlxrfTL+TT9YtEuG0&#xA;+VWAjdri3e3eKWquQkkcpUso5Cu2ThKikJJ+Qf5SN+XvliUaiI38xam4k1GSM81REqIoVagqFBLE&#xA;/wAxPUAYck+IqS9QytDsVSkeUvK417/EI0m0GucSn6SEKevQin95TlWm1etNumGzVKm2BXYq7FXY&#xA;q7FXYq7FXYq7FXYq7FXhU35qw/lB5SPlLX9OlOt6XA6aHcRKTZ6mhY8JzIDWNqtWdW3rUitRl3Bx&#xA;GwmrYH+SX5V6v+ZXmCX8xfPcj3mnGcvBFMARezRmhqp2FvERx4gUNOPQEZPJPhFBJL6wVVVQqgKq&#xA;igA2AAzGYt4q7FWnRHXi6hlPVSKjbfvireKuxV2KuxV2KuxV2KuxV2KuxV2KuxV2KuxV2KuxV2Ku&#xA;xV2KuxV2KuxV2KuxV2KuxVj/AJ3/AMB/oj/ndf0d+iuY4/pT0vS9Ttw9X9v/AFd8lG+iprpH6K/R&#xA;dr+iPQ/RfpJ9S+q8fQ9Gnwenw+HjTpTAVReBXYq7FXYq7FXYq7FXYq7FXYq7FXYq7FXYq7FXYq7F&#xA;XYq7FXYq7FXYq7FXYq7FXYq7FXYq7FXYq//Z</xmpGImg:image>
               </rdf:li>
            </rdf:Alt>
         </xmp:Thumbnails>
         <xmpMM:InstanceID>xmp.iid:d01abebf-0ac7-4aa2-bba8-6e36a7bee22c</xmpMM:InstanceID>
         <xmpMM:DocumentID>xmp.did:d01abebf-0ac7-4aa2-bba8-6e36a7bee22c</xmpMM:DocumentID>
         <xmpMM:OriginalDocumentID>uuid:5D20892493BFDB11914A8590D31508C8</xmpMM:OriginalDocumentID>
         <xmpMM:RenditionClass>default</xmpMM:RenditionClass>
         <xmpMM:DerivedFrom rdf:parseType="Resource">
            <stRef:instanceID>xmp.iid:0c77a975-ef96-4ffe-875d-6502db1cb545</stRef:instanceID>
            <stRef:documentID>xmp.did:0c77a975-ef96-4ffe-875d-6502db1cb545</stRef:documentID>
            <stRef:originalDocumentID>uuid:5D20892493BFDB11914A8590D31508C8</stRef:originalDocumentID>
            <stRef:renditionClass>default</stRef:renditionClass>
         </xmpMM:DerivedFrom>
         <xmpMM:History>
            <rdf:Seq>
               <rdf:li rdf:parseType="Resource">
                  <stEvt:action>saved</stEvt:action>
                  <stEvt:instanceID>xmp.iid:273d1f87-80b8-4489-ba74-dfd6cd334ef8</stEvt:instanceID>
                  <stEvt:when>2022-03-08T18:29:11-06:00</stEvt:when>
                  <stEvt:softwareAgent>Adobe Illustrator 26.0 (Macintosh)</stEvt:softwareAgent>
                  <stEvt:changed>/</stEvt:changed>
               </rdf:li>
               <rdf:li rdf:parseType="Resource">
                  <stEvt:action>saved</stEvt:action>
                  <stEvt:instanceID>xmp.iid:d01abebf-0ac7-4aa2-bba8-6e36a7bee22c</stEvt:instanceID>
                  <stEvt:when>2022-03-08T19:15:23-06:00</stEvt:when>
                  <stEvt:softwareAgent>Adobe Illustrator 26.0 (Macintosh)</stEvt:softwareAgent>
                  <stEvt:changed>/</stEvt:changed>
               </rdf:li>
            </rdf:Seq>
         </xmpMM:History>
         <illustrator:StartupProfile>Print</illustrator:StartupProfile>
         <illustrator:CreatorSubTool>Adobe Illustrator</illustrator:CreatorSubTool>
         <pdf:Producer>Adobe PDF library 15.00</pdf:Producer>
         <xmpTPg:MaxPageSize rdf:parseType="Resource">
            <stDim:w>17.000000</stDim:w>
            <stDim:h>11.000000</stDim:h>
            <stDim:unit>Inches</stDim:unit>
         </xmpTPg:MaxPageSize>
         <xmpTPg:NPages>1</xmpTPg:NPages>
         <xmpTPg:HasVisibleTransparency>False</xmpTPg:HasVisibleTransparency>
         <xmpTPg:HasVisibleOverprint>False</xmpTPg:HasVisibleOverprint>
         <xmpTPg:PlateNames>
            <rdf:Seq>
               <rdf:li>Cyan</rdf:li>
               <rdf:li>Magenta</rdf:li>
               <rdf:li>Yellow</rdf:li>
               <rdf:li>Black</rdf:li>
            </rdf:Seq>
         </xmpTPg:PlateNames>
         <xmpTPg:SwatchGroups>
            <rdf:Seq>
               <rdf:li rdf:parseType="Resource">
                  <xmpG:groupName>Default Swatch Group</xmpG:groupName>
                  <xmpG:groupType>0</xmpG:groupType>
                  <xmpG:Colorants>
                     <rdf:Seq>
                        <rdf:li rdf:parseType="Resource">
                           <xmpG:swatchName>White</xmpG:swatchName>
                           <xmpG:mode>RGB</xmpG:mode>
                           <xmpG:type>PROCESS</xmpG:type>
                           <xmpG:red>255</xmpG:red>
                           <xmpG:green>255</xmpG:green>
                           <xmpG:blue>255</xmpG:blue>
                        </rdf:li>
                        <rdf:li rdf:parseType="Resource">
                           <xmpG:swatchName>Black</xmpG:swatchName>
                           <xmpG:mode>RGB</xmpG:mode>
                           <xmpG:type>PROCESS</xmpG:type>
                           <xmpG:red>35</xmpG:red>
                           <xmpG:green>31</xmpG:green>
                           <xmpG:blue>32</xmpG:blue>
                        </rdf:li>
                        <rdf:li rdf:parseType="Resource">
                           <xmpG:swatchName>CMYK Red</xmpG:swatchName>
                           <xmpG:mode>RGB</xmpG:mode>
                           <xmpG:type>PROCESS</xmpG:type>
                           <xmpG:red>237</xmpG:red>
                           <xmpG:green>28</xmpG:green>
                           <xmpG:blue>36</xmpG:blue>
                        </rdf:li>
                        <rdf:li rdf:parseType="Resource">
                           <xmpG:swatchName>CMYK Yellow</xmpG:swatchName>
                           <xmpG:mode>RGB</xmpG:mode>
                           <xmpG:type>PROCESS</xmpG:type>
                           <xmpG:red>255</xmpG:red>
                           <xmpG:green>242</xmpG:green>
                           <xmpG:blue>0</xmpG:blue>
                        </rdf:li>
                        <rdf:li rdf:parseType="Resource">
                           <xmpG:swatchName>CMYK Green</xmpG:swatchName>
                           <xmpG:mode>RGB</xmpG:mode>
                           <xmpG:type>PROCESS</xmpG:type>
                           <xmpG:red>0</xmpG:red>
                           <xmpG:green>166</xmpG:green>
                           <xmpG:blue>81</xmpG:blue>
                        </rdf:li>
                        <rdf:li rdf:parseType="Resource">
                           <xmpG:swatchName>CMYK Cyan</xmpG:swatchName>
                           <xmpG:mode>RGB</xmpG:mode>
                           <xmpG:type>PROCESS</xmpG:type>
                           <xmpG:red>0</xmpG:red>
                           <xmpG:green>174</xmpG:green>
                           <xmpG:blue>239</xmpG:blue>
                        </rdf:li>
                        <rdf:li rdf:parseType="Resource">
                           <xmpG:swatchName>CMYK Blue</xmpG:swatchName>
                           <xmpG:mode>RGB</xmpG:mode>
                           <xmpG:type>PROCESS</xmpG:type>
                           <xmpG:red>46</xmpG:red>
                           <xmpG:green>49</xmpG:green>
                           <xmpG:blue>146</xmpG:blue>
                        </rdf:li>
                        <rdf:li rdf:parseType="Resource">
                           <xmpG:swatchName>CMYK Magenta</xmpG:swatchName>
                           <xmpG:mode>RGB</xmpG:mode>
                           <xmpG:type>PROCESS</xmpG:type>
                           <xmpG:red>236</xmpG:red>
                           <xmpG:green>0</xmpG:green>
                           <xmpG:blue>140</xmpG:blue>
                        </rdf:li>
                        <rdf:li rdf:parseType="Resource">
                           <xmpG:swatchName>C=15 M=100 Y=90 K=10</xmpG:swatchName>
                           <xmpG:mode>RGB</xmpG:mode>
                           <xmpG:type>PROCESS</xmpG:type>
                           <xmpG:red>190</xmpG:red>
                           <xmpG:green>30</xmpG:green>
                           <xmpG:blue>45</xmpG:blue>
                        </rdf:li>
                        <rdf:li rdf:parseType="Resource">
                           <xmpG:swatchName>C=0 M=90 Y=85 K=0</xmpG:swatchName>
                           <xmpG:mode>RGB</xmpG:mode>
                           <xmpG:type>PROCESS</xmpG:type>
                           <xmpG:red>239</xmpG:red>
                           <xmpG:green>65</xmpG:green>
                           <xmpG:blue>54</xmpG:blue>
                        </rdf:li>
                        <rdf:li rdf:parseType="Resource">
                           <xmpG:swatchName>C=0 M=80 Y=95 K=0</xmpG:swatchName>
                           <xmpG:mode>RGB</xmpG:mode>
                           <xmpG:type>PROCESS</xmpG:type>
                           <xmpG:red>241</xmpG:red>
                           <xmpG:green>90</xmpG:green>
                           <xmpG:blue>41</xmpG:blue>
                        </rdf:li>
                        <rdf:li rdf:parseType="Resource">
                           <xmpG:swatchName>C=0 M=50 Y=100 K=0</xmpG:swatchName>
                           <xmpG:mode>RGB</xmpG:mode>
                           <xmpG:type>PROCESS</xmpG:type>
                           <xmpG:red>247</xmpG:red>
                           <xmpG:green>148</xmpG:green>
                           <xmpG:blue>29</xmpG:blue>
                        </rdf:li>
                        <rdf:li rdf:parseType="Resource">
                           <xmpG:swatchName>C=0 M=35 Y=85 K=0</xmpG:swatchName>
                           <xmpG:mode>RGB</xmpG:mode>
                           <xmpG:type>PROCESS</xmpG:type>
                           <xmpG:red>251</xmpG:red>
                           <xmpG:green>176</xmpG:green>
                           <xmpG:blue>64</xmpG:blue>
                        </rdf:li>
                        <rdf:li rdf:parseType="Resource">
                           <xmpG:swatchName>C=5 M=0 Y=90 K=0</xmpG:swatchName>
                           <xmpG:mode>RGB</xmpG:mode>
                           <xmpG:type>PROCESS</xmpG:type>
                           <xmpG:red>249</xmpG:red>
                           <xmpG:green>237</xmpG:green>
                           <xmpG:blue>50</xmpG:blue>
                        </rdf:li>
                        <rdf:li rdf:parseType="Resource">
                           <xmpG:swatchName>C=20 M=0 Y=100 K=0</xmpG:swatchName>
                           <xmpG:mode>RGB</xmpG:mode>
                           <xmpG:type>PROCESS</xmpG:type>
                           <xmpG:red>215</xmpG:red>
                           <xmpG:green>223</xmpG:green>
                           <xmpG:blue>35</xmpG:blue>
                        </rdf:li>
                        <rdf:li rdf:parseType="Resource">
                           <xmpG:swatchName>C=50 M=0 Y=100 K=0</xmpG:swatchName>
                           <xmpG:mode>RGB</xmpG:mode>
                           <xmpG:type>PROCESS</xmpG:type>
                           <xmpG:red>141</xmpG:red>
                           <xmpG:green>198</xmpG:green>
                           <xmpG:blue>63</xmpG:blue>
                        </rdf:li>
                        <rdf:li rdf:parseType="Resource">
                           <xmpG:swatchName>C=75 M=0 Y=100 K=0</xmpG:swatchName>
                           <xmpG:mode>RGB</xmpG:mode>
                           <xmpG:type>PROCESS</xmpG:type>
                           <xmpG:red>57</xmpG:red>
                           <xmpG:green>181</xmpG:green>
                           <xmpG:blue>74</xmpG:blue>
                        </rdf:li>
                        <rdf:li rdf:parseType="Resource">
                           <xmpG:swatchName>C=85 M=10 Y=100 K=10</xmpG:swatchName>
                           <xmpG:mode>RGB</xmpG:mode>
                           <xmpG:type>PROCESS</xmpG:type>
                           <xmpG:red>0</xmpG:red>
                           <xmpG:green>148</xmpG:green>
                           <xmpG:blue>68</xmpG:blue>
                        </rdf:li>
                        <rdf:li rdf:parseType="Resource">
                           <xmpG:swatchName>C=90 M=30 Y=95 K=30</xmpG:swatchName>
                           <xmpG:mode>RGB</xmpG:mode>
                           <xmpG:type>PROCESS</xmpG:type>
                           <xmpG:red>0</xmpG:red>
                           <xmpG:green>104</xmpG:green>
                           <xmpG:blue>56</xmpG:blue>
                        </rdf:li>
                        <rdf:li rdf:parseType="Resource">
                           <xmpG:swatchName>C=75 M=0 Y=75 K=0</xmpG:swatchName>
                           <xmpG:mode>RGB</xmpG:mode>
                           <xmpG:type>PROCESS</xmpG:type>
                           <xmpG:red>43</xmpG:red>
                           <xmpG:green>182</xmpG:green>
                           <xmpG:blue>115</xmpG:blue>
                        </rdf:li>
                        <rdf:li rdf:parseType="Resource">
                           <xmpG:swatchName>C=80 M=10 Y=45 K=0</xmpG:swatchName>
                           <xmpG:mode>RGB</xmpG:mode>
                           <xmpG:type>PROCESS</xmpG:type>
                           <xmpG:red>0</xmpG:red>
                           <xmpG:green>167</xmpG:green>
                           <xmpG:blue>157</xmpG:blue>
                        </rdf:li>
                        <rdf:li rdf:parseType="Resource">
                           <xmpG:swatchName>C=70 M=15 Y=0 K=0</xmpG:swatchName>
                           <xmpG:mode>RGB</xmpG:mode>
                           <xmpG:type>PROCESS</xmpG:type>
                           <xmpG:red>39</xmpG:red>
                           <xmpG:green>170</xmpG:green>
                           <xmpG:blue>225</xmpG:blue>
                        </rdf:li>
                        <rdf:li rdf:parseType="Resource">
                           <xmpG:swatchName>C=85 M=50 Y=0 K=0</xmpG:swatchName>
                           <xmpG:mode>RGB</xmpG:mode>
                           <xmpG:type>PROCESS</xmpG:type>
                           <xmpG:red>28</xmpG:red>
                           <xmpG:green>117</xmpG:green>
                           <xmpG:blue>188</xmpG:blue>
                        </rdf:li>
                        <rdf:li rdf:parseType="Resource">
                           <xmpG:swatchName>C=100 M=95 Y=5 K=0</xmpG:swatchName>
                           <xmpG:mode>RGB</xmpG:mode>
                           <xmpG:type>PROCESS</xmpG:type>
                           <xmpG:red>43</xmpG:red>
                           <xmpG:green>57</xmpG:green>
                           <xmpG:blue>144</xmpG:blue>
                        </rdf:li>
                        <rdf:li rdf:parseType="Resource">
                           <xmpG:swatchName>C=100 M=100 Y=25 K=25</xmpG:swatchName>
                           <xmpG:mode>RGB</xmpG:mode>
                           <xmpG:type>PROCESS</xmpG:type>
                           <xmpG:red>38</xmpG:red>
                           <xmpG:green>34</xmpG:green>
                           <xmpG:blue>98</xmpG:blue>
                        </rdf:li>
                        <rdf:li rdf:parseType="Resource">
                           <xmpG:swatchName>C=75 M=100 Y=0 K=0</xmpG:swatchName>
                           <xmpG:mode>RGB</xmpG:mode>
                           <xmpG:type>PROCESS</xmpG:type>
                           <xmpG:red>102</xmpG:red>
                           <xmpG:green>45</xmpG:green>
                           <xmpG:blue>145</xmpG:blue>
                        </rdf:li>
                        <rdf:li rdf:parseType="Resource">
                           <xmpG:swatchName>C=50 M=100 Y=0 K=0</xmpG:swatchName>
                           <xmpG:mode>RGB</xmpG:mode>
                           <xmpG:type>PROCESS</xmpG:type>
                           <xmpG:red>146</xmpG:red>
                           <xmpG:green>39</xmpG:green>
                           <xmpG:blue>143</xmpG:blue>
                        </rdf:li>
                        <rdf:li rdf:parseType="Resource">
                           <xmpG:swatchName>C=35 M=100 Y=35 K=10</xmpG:swatchName>
                           <xmpG:mode>RGB</xmpG:mode>
                           <xmpG:type>PROCESS</xmpG:type>
                           <xmpG:red>158</xmpG:red>
                           <xmpG:green>31</xmpG:green>
                           <xmpG:blue>99</xmpG:blue>
                        </rdf:li>
                        <rdf:li rdf:parseType="Resource">
                           <xmpG:swatchName>C=10 M=100 Y=50 K=0</xmpG:swatchName>
                           <xmpG:mode>RGB</xmpG:mode>
                           <xmpG:type>PROCESS</xmpG:type>
                           <xmpG:red>218</xmpG:red>
                           <xmpG:green>28</xmpG:green>
                           <xmpG:blue>92</xmpG:blue>
                        </rdf:li>
                        <rdf:li rdf:parseType="Resource">
                           <xmpG:swatchName>C=0 M=95 Y=20 K=0</xmpG:swatchName>
                           <xmpG:mode>RGB</xmpG:mode>
                           <xmpG:type>PROCESS</xmpG:type>
                           <xmpG:red>238</xmpG:red>
                           <xmpG:green>42</xmpG:green>
                           <xmpG:blue>123</xmpG:blue>
                        </rdf:li>
                        <rdf:li rdf:parseType="Resource">
                           <xmpG:swatchName>C=25 M=25 Y=40 K=0</xmpG:swatchName>
                           <xmpG:mode>RGB</xmpG:mode>
                           <xmpG:type>PROCESS</xmpG:type>
                           <xmpG:red>194</xmpG:red>
                           <xmpG:green>181</xmpG:green>
                           <xmpG:blue>155</xmpG:blue>
                        </rdf:li>
                        <rdf:li rdf:parseType="Resource">
                           <xmpG:swatchName>C=40 M=45 Y=50 K=5</xmpG:swatchName>
                           <xmpG:mode>RGB</xmpG:mode>
                           <xmpG:type>PROCESS</xmpG:type>
                           <xmpG:red>155</xmpG:red>
                           <xmpG:green>133</xmpG:green>
                           <xmpG:blue>121</xmpG:blue>
                        </rdf:li>
                        <rdf:li rdf:parseType="Resource">
                           <xmpG:swatchName>C=50 M=50 Y=60 K=25</xmpG:swatchName>
                           <xmpG:mode>RGB</xmpG:mode>
                           <xmpG:type>PROCESS</xmpG:type>
                           <xmpG:red>114</xmpG:red>
                           <xmpG:green>102</xmpG:green>
                           <xmpG:blue>88</xmpG:blue>
                        </rdf:li>
                        <rdf:li rdf:parseType="Resource">
                           <xmpG:swatchName>C=55 M=60 Y=65 K=40</xmpG:swatchName>
                           <xmpG:mode>RGB</xmpG:mode>
                           <xmpG:type>PROCESS</xmpG:type>
                           <xmpG:red>89</xmpG:red>
                           <xmpG:green>74</xmpG:green>
                           <xmpG:blue>66</xmpG:blue>
                        </rdf:li>
                        <rdf:li rdf:parseType="Resource">
                           <xmpG:swatchName>C=25 M=40 Y=65 K=0</xmpG:swatchName>
                           <xmpG:mode>RGB</xmpG:mode>
                           <xmpG:type>PROCESS</xmpG:type>
                           <xmpG:red>196</xmpG:red>
                           <xmpG:green>154</xmpG:green>
                           <xmpG:blue>108</xmpG:blue>
                        </rdf:li>
                        <rdf:li rdf:parseType="Resource">
                           <xmpG:swatchName>C=30 M=50 Y=75 K=10</xmpG:swatchName>
                           <xmpG:mode>RGB</xmpG:mode>
                           <xmpG:type>PROCESS</xmpG:type>
                           <xmpG:red>169</xmpG:red>
                           <xmpG:green>124</xmpG:green>
                           <xmpG:blue>80</xmpG:blue>
                        </rdf:li>
                        <rdf:li rdf:parseType="Resource">
                           <xmpG:swatchName>C=35 M=60 Y=80 K=25</xmpG:swatchName>
                           <xmpG:mode>RGB</xmpG:mode>
                           <xmpG:type>PROCESS</xmpG:type>
                           <xmpG:red>139</xmpG:red>
                           <xmpG:green>94</xmpG:green>
                           <xmpG:blue>60</xmpG:blue>
                        </rdf:li>
                        <rdf:li rdf:parseType="Resource">
                           <xmpG:swatchName>C=40 M=65 Y=90 K=35</xmpG:swatchName>
                           <xmpG:mode>RGB</xmpG:mode>
                           <xmpG:type>PROCESS</xmpG:type>
                           <xmpG:red>117</xmpG:red>
                           <xmpG:green>76</xmpG:green>
                           <xmpG:blue>41</xmpG:blue>
                        </rdf:li>
                        <rdf:li rdf:parseType="Resource">
                           <xmpG:swatchName>C=40 M=70 Y=100 K=50</xmpG:swatchName>
                           <xmpG:mode>RGB</xmpG:mode>
                           <xmpG:type>PROCESS</xmpG:type>
                           <xmpG:red>96</xmpG:red>
                           <xmpG:green>57</xmpG:green>
                           <xmpG:blue>19</xmpG:blue>
                        </rdf:li>
                        <rdf:li rdf:parseType="Resource">
                           <xmpG:swatchName>C=50 M=70 Y=80 K=70</xmpG:swatchName>
                           <xmpG:mode>RGB</xmpG:mode>
                           <xmpG:type>PROCESS</xmpG:type>
                           <xmpG:red>60</xmpG:red>
                           <xmpG:green>36</xmpG:green>
                           <xmpG:blue>21</xmpG:blue>
                        </rdf:li>
                        <rdf:li rdf:parseType="Resource">
                           <xmpG:swatchName>R=244 G=239 B=233</xmpG:swatchName>
                           <xmpG:type>PROCESS</xmpG:type>
                           <xmpG:tint>100.000000</xmpG:tint>
                           <xmpG:mode>RGB</xmpG:mode>
                           <xmpG:red>244</xmpG:red>
                           <xmpG:green>239</xmpG:green>
                           <xmpG:blue>233</xmpG:blue>
                        </rdf:li>
                        <rdf:li rdf:parseType="Resource">
                           <xmpG:swatchName>R=25 G=10 B=45 1</xmpG:swatchName>
                           <xmpG:mode>RGB</xmpG:mode>
                           <xmpG:type>PROCESS</xmpG:type>
                           <xmpG:red>25</xmpG:red>
                           <xmpG:green>10</xmpG:green>
                           <xmpG:blue>45</xmpG:blue>
                        </rdf:li>
                     </rdf:Seq>
                  </xmpG:Colorants>
               </rdf:li>
               <rdf:li rdf:parseType="Resource">
                  <xmpG:groupName>Grays</xmpG:groupName>
                  <xmpG:groupType>1</xmpG:groupType>
                  <xmpG:Colorants>
                     <rdf:Seq>
                        <rdf:li rdf:parseType="Resource">
                           <xmpG:swatchName>C=0 M=0 Y=0 K=100</xmpG:swatchName>
                           <xmpG:mode>RGB</xmpG:mode>
                           <xmpG:type>PROCESS</xmpG:type>
                           <xmpG:red>35</xmpG:red>
                           <xmpG:green>31</xmpG:green>
                           <xmpG:blue>32</xmpG:blue>
                        </rdf:li>
                        <rdf:li rdf:parseType="Resource">
                           <xmpG:swatchName>C=0 M=0 Y=0 K=90</xmpG:swatchName>
                           <xmpG:mode>RGB</xmpG:mode>
                           <xmpG:type>PROCESS</xmpG:type>
                           <xmpG:red>65</xmpG:red>
                           <xmpG:green>64</xmpG:green>
                           <xmpG:blue>66</xmpG:blue>
                        </rdf:li>
                        <rdf:li rdf:parseType="Resource">
                           <xmpG:swatchName>C=0 M=0 Y=0 K=80</xmpG:swatchName>
                           <xmpG:mode>RGB</xmpG:mode>
                           <xmpG:type>PROCESS</xmpG:type>
                           <xmpG:red>88</xmpG:red>
                           <xmpG:green>89</xmpG:green>
                           <xmpG:blue>91</xmpG:blue>
                        </rdf:li>
                        <rdf:li rdf:parseType="Resource">
                           <xmpG:swatchName>C=0 M=0 Y=0 K=70</xmpG:swatchName>
                           <xmpG:mode>RGB</xmpG:mode>
                           <xmpG:type>PROCESS</xmpG:type>
                           <xmpG:red>109</xmpG:red>
                           <xmpG:green>110</xmpG:green>
                           <xmpG:blue>113</xmpG:blue>
                        </rdf:li>
                        <rdf:li rdf:parseType="Resource">
                           <xmpG:swatchName>C=0 M=0 Y=0 K=60</xmpG:swatchName>
                           <xmpG:mode>RGB</xmpG:mode>
                           <xmpG:type>PROCESS</xmpG:type>
                           <xmpG:red>128</xmpG:red>
                           <xmpG:green>130</xmpG:green>
                           <xmpG:blue>133</xmpG:blue>
                        </rdf:li>
                        <rdf:li rdf:parseType="Resource">
                           <xmpG:swatchName>C=0 M=0 Y=0 K=50</xmpG:swatchName>
                           <xmpG:mode>RGB</xmpG:mode>
                           <xmpG:type>PROCESS</xmpG:type>
                           <xmpG:red>147</xmpG:red>
                           <xmpG:green>149</xmpG:green>
                           <xmpG:blue>152</xmpG:blue>
                        </rdf:li>
                        <rdf:li rdf:parseType="Resource">
                           <xmpG:swatchName>C=0 M=0 Y=0 K=40</xmpG:swatchName>
                           <xmpG:mode>RGB</xmpG:mode>
                           <xmpG:type>PROCESS</xmpG:type>
                           <xmpG:red>167</xmpG:red>
                           <xmpG:green>169</xmpG:green>
                           <xmpG:blue>172</xmpG:blue>
                        </rdf:li>
                        <rdf:li rdf:parseType="Resource">
                           <xmpG:swatchName>C=0 M=0 Y=0 K=30</xmpG:swatchName>
                           <xmpG:mode>RGB</xmpG:mode>
                           <xmpG:type>PROCESS</xmpG:type>
                           <xmpG:red>188</xmpG:red>
                           <xmpG:green>190</xmpG:green>
                           <xmpG:blue>192</xmpG:blue>
                        </rdf:li>
                        <rdf:li rdf:parseType="Resource">
                           <xmpG:swatchName>C=0 M=0 Y=0 K=20</xmpG:swatchName>
                           <xmpG:mode>RGB</xmpG:mode>
                           <xmpG:type>PROCESS</xmpG:type>
                           <xmpG:red>209</xmpG:red>
                           <xmpG:green>211</xmpG:green>
                           <xmpG:blue>212</xmpG:blue>
                        </rdf:li>
                        <rdf:li rdf:parseType="Resource">
                           <xmpG:swatchName>C=0 M=0 Y=0 K=10</xmpG:swatchName>
                           <xmpG:mode>RGB</xmpG:mode>
                           <xmpG:type>PROCESS</xmpG:type>
                           <xmpG:red>230</xmpG:red>
                           <xmpG:green>231</xmpG:green>
                           <xmpG:blue>232</xmpG:blue>
                        </rdf:li>
                        <rdf:li rdf:parseType="Resource">
                           <xmpG:swatchName>C=0 M=0 Y=0 K=5</xmpG:swatchName>
                           <xmpG:mode>RGB</xmpG:mode>
                           <xmpG:type>PROCESS</xmpG:type>
                           <xmpG:red>241</xmpG:red>
                           <xmpG:green>242</xmpG:green>
                           <xmpG:blue>242</xmpG:blue>
                        </rdf:li>
                     </rdf:Seq>
                  </xmpG:Colorants>
               </rdf:li>
               <rdf:li rdf:parseType="Resource">
                  <xmpG:groupName>Brights</xmpG:groupName>
                  <xmpG:groupType>1</xmpG:groupType>
                  <xmpG:Colorants>
                     <rdf:Seq>
                        <rdf:li rdf:parseType="Resource">
                           <xmpG:swatchName>C=0 M=100 Y=100 K=0</xmpG:swatchName>
                           <xmpG:mode>RGB</xmpG:mode>
                           <xmpG:type>PROCESS</xmpG:type>
                           <xmpG:red>237</xmpG:red>
                           <xmpG:green>28</xmpG:green>
                           <xmpG:blue>36</xmpG:blue>
                        </rdf:li>
                        <rdf:li rdf:parseType="Resource">
                           <xmpG:swatchName>C=0 M=75 Y=100 K=0</xmpG:swatchName>
                           <xmpG:mode>RGB</xmpG:mode>
                           <xmpG:type>PROCESS</xmpG:type>
                           <xmpG:red>242</xmpG:red>
                           <xmpG:green>101</xmpG:green>
                           <xmpG:blue>34</xmpG:blue>
                        </rdf:li>
                        <rdf:li rdf:parseType="Resource">
                           <xmpG:swatchName>C=0 M=10 Y=95 K=0</xmpG:swatchName>
                           <xmpG:mode>RGB</xmpG:mode>
                           <xmpG:type>PROCESS</xmpG:type>
                           <xmpG:red>255</xmpG:red>
                           <xmpG:green>222</xmpG:green>
                           <xmpG:blue>23</xmpG:blue>
                        </rdf:li>
                        <rdf:li rdf:parseType="Resource">
                           <xmpG:swatchName>C=85 M=10 Y=100 K=0</xmpG:swatchName>
                           <xmpG:mode>RGB</xmpG:mode>
                           <xmpG:type>PROCESS</xmpG:type>
                           <xmpG:red>0</xmpG:red>
                           <xmpG:green>161</xmpG:green>
                           <xmpG:blue>75</xmpG:blue>
                        </rdf:li>
                        <rdf:li rdf:parseType="Resource">
                           <xmpG:swatchName>C=100 M=90 Y=0 K=0</xmpG:swatchName>
                           <xmpG:mode>RGB</xmpG:mode>
                           <xmpG:type>PROCESS</xmpG:type>
                           <xmpG:red>33</xmpG:red>
                           <xmpG:green>64</xmpG:green>
                           <xmpG:blue>154</xmpG:blue>
                        </rdf:li>
                        <rdf:li rdf:parseType="Resource">
                           <xmpG:swatchName>C=60 M=90 Y=0 K=0</xmpG:swatchName>
                           <xmpG:mode>RGB</xmpG:mode>
                           <xmpG:type>PROCESS</xmpG:type>
                           <xmpG:red>127</xmpG:red>
                           <xmpG:green>63</xmpG:green>
                           <xmpG:blue>152</xmpG:blue>
                        </rdf:li>
                     </rdf:Seq>
                  </xmpG:Colorants>
               </rdf:li>
            </rdf:Seq>
         </xmpTPg:SwatchGroups>
      </rdf:Description>
   </rdf:RDF>
</x:xmpmeta>
                                                                                                    
                                                                                                    
                                                                                                    
                                                                                                    
                                                                                                    
                                                                                                    
                                                                                                    
                                                                                                    
                                                                                                    
                                                                                                    
                                                                                                    
                                                                                                    
                                                                                                    
                                                                                                    
                                                                                                    
                                                                                                    
                                                                                                    
                                                                                                    
                                                                                                    
                                                                                                    
                           
<?xpacket end="w"?>
	</metadata>
<g>
	<g>
		<path class="st0" d="M1021.69,338.35c-0.54-0.58-1.54-1.27-3.21-1.27c-1.07,0-2.4,0.26-4.29,0.85l-0.09,0.03
			c-5.29,1.59-10.29,3.34-15.13,5.04c-10.34,3.63-20.17,7.08-31.3,8.35c0.48-2.42,1.59-4.8,3.36-7.23c0.35,0.56,0.78,1.22,1.38,1.95
			c1.02,1.24,2.59,1.99,4.21,1.99c0.25,0,0.51-0.02,0.75-0.05c19.72-2.8,29.01-11.65,37.54-21.25c5.63-6.33,3.29-13.3,1.42-18.9
			l-0.2-0.61c-2.45-7.37-7.86-8.47-10.86-8.47c-1.8,0-3.32,0.38-3.97,0.54c-21.25,5.31-36.64,16.83-48.65,36.73
			c2.09-9.08,5.24-16.8,8.8-21.78l1.12-1.57l-0.74-1.73c-0.11-0.46,0.01-1.88,0.08-2.73c0.17-2.06,0.37-4.39-0.51-6.36l-0.22-0.49
			l-0.36-0.4c-2.09-2.31-4.29-2.8-5.76-2.8h0c-5.02,0-8.86,5.26-12.57,10.35c-1.88,2.58-4.02,5.51-5.41,6.3l-0.43,0.24l-0.34,0.35
			c-6.34,6.55-13.4,11.74-20.87,17.24c-1.3,0.96-2.61,1.92-3.93,2.9l-0.14,0.1l-0.13,0.12c-5.93,5.42-12.31,10.55-16.84,13.67
			c2.36-6.52,6.06-12.24,11.66-18.22c3.12-3.33,3.16-6.31,3.2-8.95c0.01-0.67,0.02-1.3,0.07-1.96l0.02-0.24
			c0.15-1.77,0.38-4.45-1.58-6.72c-1.74-2.02-4.05-2.11-5.43-2.16c-0.27-0.01-0.52-0.02-0.7-0.04c-0.2-0.02-0.44-0.07-0.7-0.12
			c-0.51-0.1-1.1-0.21-1.76-0.21c-1.74,0-3.2,0.81-4.09,2.28c-8.53,14.02-19.76,25.93-31.15,37.24c3.67-7.92,9.84-14.87,15.07-20.75
			c1.05-1.19,1.96-4.41,1.68-5.95c-0.37-1.98-1.18-3.08-1.78-3.88c-0.32-0.43-0.57-0.76-0.82-1.32c-0.54-3.03-2.72-4.16-4.47-4.58
			c-0.09-0.02-0.26-0.09-0.45-0.17c-0.76-0.32-1.9-0.8-3.74-0.8c-0.22,0-0.46,0.01-0.72,0.02c-1.36,0.08-3.65,1.34-4.43,2.11
			c-3.54,3.53-6.79,7.85-9.67,12.84c-1.32,2.36-5.9,9.54-11.76,16.91c-2.77,3.48-5.15,6.15-7.19,8.21
			c1.63-4.49,2.45-8.57,0.72-11.69c-0.53-0.96-0.83-2.6-1.12-4.19c-0.65-3.61-1.46-8.1-5.75-10.3c-1.96-1.01-4.37-1.52-7.16-1.52
			c-5.79,0-12.97,2.25-18.28,5.73c-0.45,0.29-3.49,2.53-4.01,2.99c-11.2,9.93-25.64,30.66-28.51,44.57
			c-1.81,7.5-0.84,17.72,7.34,23.99c0.92,0.7,2.07,1.05,3.53,1.05c5.21,0,17.27-5.24,21.96-8.23c0.46,0.17,1.04,0.33,1.7,0.33
			c1.07,0,2.09-0.41,2.88-1.15c0.98-0.93,1.77-1.86,2.53-2.75c1.07-1.27,2.01-2.37,3.21-3.13c0.13-0.01,0.32-0.03,0.47-0.03
			c1.1-0.07,2.92-0.19,5.08-1.45c2.27-1.02,10.7-5.01,18.23-11.45c2.66,7.14,6.96,11.92,12.23,13.42l1.79,0.51l1.4-1.22
			c2.63-2.29,5.08-5.11,7.46-7.83c2.24-2.57,4.53-5.19,6.88-7.26c1.51,3.96,4.57,7.84,9.06,11.45l0.47,0.38l0.57,0.19
			c0.81,0.28,1.63,0.42,2.44,0.42c4.05,0,6.46-3.37,8.22-5.82c0.79-1.1,1.68-2.35,2.34-2.76l0.32-0.2l0.27-0.26
			c0.21-0.21,0.56-0.56,0.97-0.99c0.71-0.74,2.58-2.67,3.19-3.13c3.58-2.13,6.1-4.88,8.53-7.54c1.3-1.42,2.53-2.77,3.89-3.98
			c0.11-0.09,0.33-0.27,0.64-0.52c2.31-1.86,4.42-3.57,6.37-5.13l0.3,0.67c2.36,5.18,5.84,7.95,9.86,11.16
			c1.21,0.96,2.45,1.95,3.77,3.09c1.65,3.8,5.49,11.69,12.75,11.69c2.53,0,5.15-0.98,7.8-2.92l1.72-1.26l-0.36-2.1
			c-0.87-4.98-1.28-10.06-1.33-15.09c0.06,0.09,0.1,0.17,0.16,0.26c1.9,2.99,4.21,6.03,6.34,8.36c3.04,3.33,5.23,4.75,7.31,4.75
			c0.25,0,0.5-0.02,0.74-0.06c4.4-0.76,10.3-3.32,15.51-5.57c2.36-1.02,4.59-1.99,6.18-2.55c3.75-1.34,5.27-2.61,6.49-3.63
			c0.88-0.74,1.52-1.27,3.32-1.96c1.18-0.45,2.76-1.35,4.44-2.29c1.36-0.77,3.64-2.05,4.37-2.24c0.34-0.09,0.62-0.16,0.87-0.22
			c2.15-0.54,2.57-0.79,4.53-2.28l0.73-0.55c0.09-0.06,0.31-0.2,0.59-0.38c3.56-2.29,5.86-4.01,6.85-5.89
			c0.2-0.16,0.59-0.43,0.86-0.61c1.31-0.88,3.29-2.22,3.44-4.7C1022.77,340.11,1022.41,339.11,1021.69,338.35z M997.32,319.37
			c0.08-0.03,0.16-0.06,0.24-0.1c-0.49,0.67-1.07,1.36-1.73,2.05c-3.24,3.42-7.77,6.39-11.96,8.47
			C988.18,325.45,993.28,321.01,997.32,319.37z M793.61,378.72c0.44-1.42,1.03-2.85,1.76-4.25c0.44,0.69,0.91,1.38,1.43,2.07
			C795.85,377.33,794.77,378.07,793.61,378.72z M809.42,362.28c-0.8-2.66,0.46-7.33,1.97-8.66c1.16-1.01,1.35-2.36,1.47-3.25
			c0.01-0.06,0.02-0.13,0.03-0.2c0.92-0.54,1.62-1.11,2.49-2.02c0.51-0.53,1.52-0.87,2.62-1.14
			C816.42,352.17,811.88,359.14,809.42,362.28z M932,353.97c-0.37-0.12-0.8-0.27-1.19-0.4c-2.26-0.78-5.55-1.92-10.2-2.21
			c6.71-5.36,10.69-8.47,13.06-10.27C933.06,347.34,932.55,352,932,353.97z"/>
	</g>
	<g>
		<path class="st0" d="M786.7,346.13c1.64-2.52,3.02-5.12,4.35-7.63c1.93-3.64,3.76-7.07,6.24-10.13l0.06-0.08l0.06-0.08
			c3.85-5.34,3.45-14.86-0.82-19.6l-0.7-0.78l-1.01-0.25c-0.42-0.11-0.89-0.23-1.38-0.37c-2.16-0.59-4.85-1.33-7.47-1.33
			c-5.12,0-7.28,2.91-8.11,4.65l-0.14,0.3l-0.08,0.32c-1,3.85-2.77,7.43-4.65,11.21c-0.99,1.99-2.01,4.05-2.92,6.17
			c-3.71,6.88-7.39,13.93-10.95,20.75c-1.63,3.13-3.29,6.31-4.97,9.5c-0.92-0.74-2.08-1.19-3.32-1.19c-0.11,0-0.21,0-0.32,0.01
			c-17.4,1.07-39.23,7.71-58.08,14.32c2.61-4.36,5.36-8.82,7.9-12.94c8.53-13.83,11.31-18.51,11.5-21.05
			c0.01-0.18,0.03-0.3,0.05-0.38c0.04-0.03,0.07-0.06,0.1-0.09c0.66-0.58,2.04-1.78,2.19-4.36c0.08-0.11,0.26-0.29,0.4-0.42
			c0.79-0.81,2.1-2.15,2.28-4.55c0.22-2.92-2.65-13.07-4.26-15.09c-0.79-0.98-1.87-2.33-10.89-2.33c-0.55,0-1.89,0.01-2.55,0.08
			c-3.66,0.4-4.97,4.88-6.62,10.55c-0.42,1.45-0.82,2.82-1.16,3.72c-2.83,7.41-14.15,27.55-25.09,47.02
			c-13.74,24.44-22.22,39.66-23.26,44.25c-0.9,3.96-2.64,7.65-4.33,11.23c-2.08,4.4-4.04,8.55-4.34,12.92
			c-0.16,2.34-0.19,4,0.82,5.28c-0.18,0.67-0.26,1.4-0.22,2.16c0,0.24-0.27,0.93-0.45,1.4c-0.58,1.49-1.46,3.75-0.46,6.23
			c0.03,0.16-0.08,0.75-0.14,1.1c-0.16,0.92-0.38,2.18,0.24,3.46c0.73,1.5,2.47,3.11,4.57,3.11c1.39,0,2.67-0.71,3.43-1.9
			c6.77-10.62,15.58-26.77,24.9-43.87c4.09-7.51,8.32-15.26,12.55-22.88c0.06,0.06,0.12,0.12,0.19,0.18
			c0.48,0.43,1.32,0.95,2.57,0.95c1.22,0,2.58-0.49,4.88-1.35c0.28-0.1,0.6-0.23,0.92-0.34c0.2,0.15,0.38,0.27,0.53,0.35
			c0.53,0.29,1.12,0.44,1.76,0.44c1.26,0,4.67-0.77,17.56-3.85c7.71-1.84,19.34-4.61,21.25-4.75c0.1,0,0.2,0,0.31,0
			c2.02,0,5.96-0.56,10.05-1.22c-0.47,0.74-0.94,1.48-1.41,2.22c-2.66,4.19-5.42,8.52-7.66,13.17c-2,4.14-4.8,8.51-7.5,12.73
			c-4.56,7.11-8.87,13.82-9.96,20.05c-0.57,3.26,1.63,6.71,3.57,9.02c2.81,3.35,7.62,7.26,11.89,7.26c2.38,0,4.35-1.2,5.41-3.3
			c2.64-5.25,4.89-10.37,7.06-15.33c3-6.84,5.83-13.29,9.51-19.75c7.54-13.25,15-26.77,22.21-39.85
			C777.35,362.98,782.04,354.47,786.7,346.13z"/>
	</g>
	<g>
		<path class="st0" d="M979.15,393.23c-1.94-0.43-3.9-0.75-5.87-0.99c-0.56-1.45-1.97-2.44-3.01-2.79c-1.36-0.46-4.27-1.1-5.93-1.1
			l-0.17,0c-0.98,0.03-1.77,0.04-2.44,0.04c-1.57,0-2.35-0.06-3.33-0.13c-1.3-0.1-2.78-0.21-6.27-0.21c-0.34,0-0.7,0-1.09,0
			c-35.95,0.21-124.18,2.85-166.96,22.69c-2.52,1.17-3.92,3.3-3.86,5.85c0.12,4.73,5.63,9.56,8.24,10.83
			c0.21,0.18,0.61,0.55,0.91,0.83c1.77,1.65,3.59,3.36,5.81,3.36c0.44,0,0.86-0.07,1.27-0.2c47.43-15.39,120.62-30.93,177.23-30.93
			c1.52,0,3.01,0.01,4.5,0.03l0.02,0l0.05,0c2.33,0,3.74-1.65,3.91-3.28C982.38,395.35,981.1,393.67,979.15,393.23z"/>
	</g>
	<g>
		<path class="st0" d="M639.17,397.81c0.1-0.27,0.58-0.96,0.89-1.41c0.83-1.2,1.76-2.55,2.02-4.12c0.18-1.05-0.12-2.12-0.82-2.94
			c-1.23-1.46-3.17-1.57-3.74-1.57c-0.54,0-1.05,0.09-1.52,0.26c-5.1,1.87-10.19,3.99-15.1,6.04c-11.17,4.66-21.79,9.08-33.11,11.09
			c0.34-2.44,1.3-4.88,2.92-7.41c0.57,0.81,1.3,1.77,2.52,2.88l1.26,1.15l1.68-0.32c18.46-3.5,27.35-11.02,37.3-23.66
			c5.41-6.87,2.15-14.37-0.47-20.4l-0.16-0.36c-1.12-2.58-4.52-6.95-10.15-6.95c-1.34,0-2.71,0.25-4.09,0.76
			c-23.17,8.43-39.63,23.89-50.19,47.18c1.65-11.95,4.97-23.29,11.81-30.97c0.94-1.05,2.25-3.45,1.25-5.77
			c-0.21-0.48-0.42-0.96-0.64-1.45c-0.47-1.05-0.96-2.14-1.36-3.2c-0.02-0.05-2.14-5.66-6.29-5.66c-0.18,0-0.37,0.01-0.55,0.03
			c-3.6,0.45-6.52,4.01-10.99,9.78c-2.41,3.12-5.15,6.66-6.99,7.7l-0.44,0.25l-0.35,0.36c-4.7,4.93-12.11,10.58-18.64,15.57
			c-8.7,6.64-13.31,10.24-14.76,13.2c-0.54,1.11-1.12,1.42-2.5,2.1c-1.6,0.78-3.79,1.85-5.11,4.75c-0.08,0.11-0.19,0.24-0.32,0.38
			c1.49-3.01,3.31-6.04,5.09-9.02c1.23-2.05,2.39-3.98,3.44-5.91c0.69-1.26,1.52-2.41,2.33-3.52c2.29-3.15,4.89-6.72,3.15-11.96
			c0.03-0.11,0.08-0.29,0.12-0.43c0.25-0.83,0.62-2.07,0.32-3.69c-0.65-3.49-3.95-5.93-8.02-5.93c-2.08,0-4.09,0.65-5.68,1.84
			c-0.95,0.71-2.01,2.48-2.02,2.5c-4.06,7.07-14.16,20.18-15.85,22.3c-4.59,5.76-8.87,10.12-14.82,14.96
			c3.46-9,9.79-16.1,13.8-19.98c0.65-0.63,2.76-2.88,2.77-5.63c0-0.35,0.01-0.71,0.01-1.07c0.05-3.88,0.1-8.71-3.43-12.69
			c-0.59-0.66-1.97-2.22-4.19-2.22c-1.43,0-2.52,0.61-3.78,1.33c-0.56,0.32-1.19,0.67-2.01,1.08c-5.06,2.5-7.78,7.53-10.19,11.97
			c-0.48,0.88-0.93,1.71-1.38,2.5c-9.8,17.53-21.56,30.96-28.19,37.38c2.92-8.97,8.8-16.95,14.53-24.72l1.32-1.8
			c1.1-1.49,1.04-4.23,0.27-5.58c-2.83-4.94-6.88-9.3-9.86-10.62c-0.73-0.32-1.48-0.49-2.23-0.49c-2.83,0-4.42,2.14-5.47,3.55
			c-0.24,0.32-0.47,0.63-0.67,0.86c-1.23,1.43-2.42,3.09-3.63,4.88c-0.39-0.62-0.84-1.2-1.34-1.72c-2.14-2.23-5.17-3.41-8.74-3.41
			c-3.03,0-6.35,0.88-9.34,2.46c-6.79,3.6-11.33,11.15-16.14,19.14c-1.18,1.96-2.4,3.99-3.68,6c-6.5,8.4-13.14,14.73-19.19,18.38
			c1.2-3.03,3.37-5.79,5.25-8.19c1.96-2.5,3.51-4.47,4.03-6.62c1.09-4.58-2.87-7.76-6.06-10.31c-0.62-0.5-1.25-1-1.82-1.5
			c1.24-1.69,2.33-3.33,3.24-4.9c1.63-2.01,3.7-5.2,3.87-10.18l0.01-0.31l-0.04-0.3c-0.67-4.59-3.73-7.15-6.42-9.41
			c-1.08-0.91-2.1-1.76-2.93-2.71c-1.29-1.47-3.01-2.24-4.98-2.24c-1.6,0-3.29,0.54-5.06,1.48c2.57-2.21,5.53-4.63,8.09-6.72
			c7.7-6.29,8.43-6.92,8.74-8.61c0.1-0.56,0.14-1.34-0.18-2.16c0.37-0.29,0.73-0.57,1.03-0.8c3.09-2.39,4.27-3.31,4.61-4.64
			c1.12-1.93,0.5-3.42,0.02-4.15l-1.02-1.53l-1.85-0.01c-0.9,0-1.67,0-12.76,6.58c-3.98,2.36-11.15,6.72-16.16,10.36
			c-4.16,0.13-6.83,2.27-9.2,4.16c-0.45,0.36-0.87,0.7-1.31,1.03c-9.8,4.43-24.23,15.87-25.82,18.05c-0.13,0.18-0.28,0.4-0.46,0.66
			c-1.05,1.53-1.83,2.5-2.33,2.88c-0.07,0-0.13,0-0.2,0c-2.4,0-5.23,1.93-11.57,6.67c-2.37,1.77-4.83,3.61-6.06,4.25l-0.35,0.18
			l-0.3,0.26c-5.96,5.15-12.42,10.21-18.66,15.11c-6.89,5.4-13.91,10.91-20.61,16.78c7.27-12.48,15.76-25.82,22.63-36.63
			c2.59-4.08,5.04-7.92,7.05-11.15l0.03-0.05l0.03-0.05c4.71-8.14,4.75-10.57,2.48-13.76c-0.3-0.42-0.5-0.7-0.66-1.15
			c-1.03-2.94-3.55-4.43-7.47-4.43c-0.6,0-1.18,0.03-1.73,0.05c-0.46,0.02-0.9,0.04-1.27,0.04c-0.31,0-0.49-0.01-0.58-0.03
			c-0.75-0.4-1.58-0.62-2.41-0.62c-3.57,0-5.77,3.54-7.53,6.39c-0.38,0.61-0.94,1.52-1.19,1.8c-2.22,1.93-3.57,4.42-4.75,6.63
			c-0.36,0.66-0.69,1.29-1.04,1.88c-9.41,16.51-17.83,32.07-25.96,47.11c-7.63,14.12-15.53,28.71-24.24,44.09
			c-0.86,1.34-1.7,2.57-2.5,3.75c-3.01,4.43-5.39,7.93-5.31,12.01c0.08,4.26,2.77,8.04,8.98,12.62c2.07,2.05,4.3,3.08,6.62,3.08
			c5.15,0,8.69-5.01,11.82-9.43c1.5-2.12,3.05-4.31,4.4-5.4l0.16-0.13l0.15-0.15c3.75-3.92,7.5-7.98,11.12-11.91
			c9.01-9.77,18.32-19.87,28.48-28.5c0.37-0.31,0.84-0.63,1.33-0.97c1.19-0.81,2.53-1.73,3.58-3.21c2.1-2.95,3.77-4.1,4.96-4.69
			c2.29,1.4,7.17,4.83,11.92,8.16c8.97,6.3,21.26,14.93,31.73,21.13c1.61,0.95,3.26,1.41,4.72,1.82c0.94,0.26,1.83,0.51,2.44,0.83
			c4.5,2.35,8.86,2.96,12.15,3.22c0.11,0.01,0.22,0.01,0.33,0.01c1.66,0,3.1-1,3.66-2.54c0.57-1.56,0.07-3.35-1.24-4.45
			c-2.09-1.75-4.55-3.75-7.4-6.07c-9.85-8.01-24.47-19.91-41.72-36.26c15.6-13.13,31.82-25.09,47.21-36.27
			c-1.51,5.52,1.74,11,4.11,14.3c-3.36,3.75-11.76,12.15-24.25,18.13c-1.42,0.68-3.62,2.67-2.34,8.32c1.13,4.96,4.27,9.97,8.73,9.97
			c1.07,0,2.1-0.29,3.07-0.85l0.05-0.03l0.05-0.03c3.15-1.97,6.7-4.93,10.56-8.78c4.84-4.1,8.9-7.7,12.42-10.99
			c-0.75,1.7-2,3.81-3.72,6.52c-1.84,2.89-3.74,5.88-4.81,8.91c-0.2,0.57-0.47,1.17-0.75,1.8c-0.96,2.16-2.16,4.84-1.42,8.19
			c0.56,2.52,1.94,6.41,4.13,9.76c3.54,5.41,7.31,6.54,9.84,6.54c0.93,0,1.86-0.15,2.78-0.45c0.96-0.32,2.58-0.85,12.42-11.28
			c2.01-2.13,3.6-3.84,4.86-5.22c3.85,5.68,13.63,9.3,17.39,9.3c0.15,0,0.29,0,0.42-0.01l1.26-0.07l0.91-0.88
			c2.54-2.44,5.36-5.87,8.34-9.51c0.98-1.19,1.99-2.42,3.01-3.64c0.75,2,3.57,5.37,13.1,12.21c0.84,0.6,1.83,0.92,2.87,0.92
			c3.84,0,7.27-4.06,13.49-11.85c1.92-2.4,4-5,6.1-7.39c2.67,6.98,6.92,11.65,12.12,13.13l1.79,0.51l1.4-1.22
			c2.63-2.29,5.08-5.11,7.46-7.83c2.21-2.53,4.46-5.11,6.78-7.17c1.62,4.81,5.14,9.2,9.66,11.69c1.07,0.59,2.18,0.89,3.3,0.89
			c3.92,0,6.33-3.43,8.26-6.19c0.77-1.1,1.64-2.34,2.27-2.84c0.54-0.43,1.2-1.11,2.24-2.19c0.67-0.7,1.79-1.86,2.2-2.18
			c3.31-2.03,5.8-4.48,8.2-6.85c2.3-2.27,4.47-4.41,7.22-6.03c1.6-0.94,2.24-2.11,2.67-2.89c0.35-0.64,0.65-1.19,2.05-2.18
			c0.44-0.21,0.86-0.4,1.27-0.55c-0.18,0.86-0.07,1.77,0.34,2.59c2.59,5.19,5.22,8.34,10.82,12.96c0.56,0.46,1.37,1.41,1.95,2.67
			c1.16,2.52,5.45,10.73,11.86,10.73c0.69,0,1.38-0.1,2.04-0.3c2.28-0.68,4.94-2.48,4.6-7.19c0-0.08-0.01-0.15-0.01-0.21
			c0.08-5.88,0.18-12.4,0.59-19.04c0.61,1.27,1.47,2.74,2.65,4.48c0.09,0.14,9.33,13.66,15.09,13.66c0.34,0,0.68-0.04,1-0.12
			c4.35-1.02,10.09-3.92,15.16-6.48c2.3-1.16,4.46-2.26,6.01-2.91c3.41-1.45,5.55-2.77,7.43-3.93c1.51-0.93,2.93-1.8,4.94-2.72
			c2.31-1.05,3.1-3.09,3.58-4.3c0.05-0.12,0.11-0.27,0.16-0.4l0.23-0.07c2.44-0.78,3.67-1.23,6.28-3.41
			c0.28-0.12,0.77-0.31,1.18-0.47C635.17,401.66,638.2,400.32,639.17,397.81z M615.49,371.47c0.2-0.1,0.41-0.2,0.63-0.32
			c-0.67,1.21-1.59,2.48-2.75,3.79c-3.32,3.73-7.79,6.88-11.74,8.95C605.87,378.95,611.21,373.52,615.49,371.47z M489.59,368.09
			C489.59,368.09,489.59,368.09,489.59,368.09c-0.01,0-0.02,0-0.04,0C489.57,368.1,489.58,368.09,489.59,368.09z M353.07,467.95
			c-0.01,0-0.01,0.01-0.02,0.01c-0.02,0-0.04,0-0.06,0c0,0,0,0,0,0C353.01,467.96,353.04,467.95,353.07,467.95z M401.84,409.46
			C401.84,409.46,401.84,409.46,401.84,409.46C401.84,409.46,401.84,409.46,401.84,409.46
			C401.84,409.46,401.84,409.46,401.84,409.46C401.84,409.46,401.84,409.46,401.84,409.46z M421.96,408.19
			c-1.11,1.35-3.07,3.41-5.27,5.64c2.67-4.52,5.94-8.77,9.76-12.06C425.1,403.99,423.53,406.29,421.96,408.19z M549.55,406.59
			c-0.61-0.18-1.26-0.38-1.79-0.54c-1.48-0.46-3.08-0.95-4.62-1.31c1.23-1.17,2.66-2.77,4.49-4.85c1.01-1.15,2.47-2.81,3.84-4.23
			C551.11,399.1,550.46,402.84,549.55,406.59z"/>
	</g>
	<g>
		<path class="st0" d="M997.96,381.77h-11.87c-0.13,0-0.23,0.04-0.3,0.11c-0.08,0.07-0.11,0.17-0.11,0.3v0.92
			c0,0.13,0.04,0.23,0.11,0.3c0.07,0.08,0.17,0.11,0.3,0.11h5.06v7.46c0,0.13,0.04,0.23,0.11,0.3c0.07,0.08,0.17,0.11,0.3,0.11h0.92
			c0.13,0,0.23-0.04,0.3-0.11c0.07-0.07,0.11-0.17,0.11-0.3v-7.46h5.07c0.13,0,0.23-0.04,0.3-0.11c0.07-0.07,0.11-0.17,0.11-0.3
			v-0.92c0-0.13-0.04-0.23-0.11-0.3C998.19,381.81,998.09,381.77,997.96,381.77z"/>
	</g>
	<g>
		<path class="st0" d="M1012.03,385.3h-0.71c-0.13,0-0.24-0.05-0.33-0.14l-0.15-0.12v-0.19v-0.41c0-0.12-0.04-0.22-0.12-0.3
			l-0.69-0.69c-0.07-0.07-0.17-0.11-0.29-0.11h-0.39c-0.13,0-0.24-0.05-0.33-0.14c-0.1-0.1-0.14-0.21-0.14-0.34v-0.67
			c0-0.13-0.04-0.23-0.11-0.3c-0.07-0.07-0.17-0.11-0.3-0.11h-0.92c-0.13,0-0.23,0.04-0.3,0.11c-0.07,0.07-0.11,0.17-0.11,0.3
			l0.02,0.67c0,0.13-0.05,0.24-0.14,0.34s-0.21,0.14-0.34,0.14h-1.26c-0.13,0-0.24-0.05-0.34-0.14c-0.1-0.1-0.15-0.21-0.15-0.34
			v-0.67c0-0.13-0.04-0.23-0.11-0.3c-0.08-0.07-0.17-0.11-0.3-0.11h-0.92c-0.13,0-0.23,0.04-0.3,0.11c-0.07,0.07-0.11,0.17-0.11,0.3
			l0.01,0.67c0,0.13-0.05,0.24-0.14,0.34c-0.1,0.1-0.21,0.14-0.34,0.14h-0.37c-0.13,0-0.23,0.04-0.3,0.12l-0.61,0.66
			c-0.07,0.07-0.11,0.16-0.11,0.27l-0.01,0.34c0,0.13-0.04,0.24-0.14,0.34c-0.09,0.1-0.21,0.15-0.34,0.15h-0.66
			c-0.13,0-0.23,0.04-0.3,0.11c-0.08,0.07-0.11,0.17-0.11,0.3v5.33c0,0.13,0.04,0.23,0.11,0.3c0.07,0.08,0.17,0.11,0.3,0.11h0.89
			c0.13,0,0.23-0.04,0.3-0.11c0.07-0.07,0.11-0.17,0.11-0.29l0.04-4.95c0-0.27,0.07-0.43,0.2-0.5c0.13-0.07,0.32-0.1,0.57-0.09
			c0.05,0.01,0.11,0,0.17-0.02c0.05-0.02,0.1-0.05,0.14-0.09l0.67-0.66c0.08-0.08,0.12-0.18,0.12-0.29v-0.39
			c0-0.13,0.04-0.24,0.14-0.34c0.09-0.1,0.2-0.14,0.34-0.14h0.45c0.28,0,0.42,0.16,0.43,0.48v0.4c0,0.09,0.03,0.18,0.1,0.26
			l0.1,0.11c0.09,0.1,0.11,0.21,0.07,0.34c-0.05,0.12-0.14,0.18-0.26,0.18h-0.66c-0.13,0-0.23,0.04-0.3,0.11
			c-0.07,0.07-0.11,0.17-0.11,0.3v0.92c0,0.13,0.04,0.23,0.11,0.3c0.08,0.08,0.17,0.11,0.3,0.11h0.89c0.13,0,0.23-0.04,0.3-0.11
			c0.07-0.07,0.11-0.17,0.11-0.3l0.02-0.69c0-0.14,0.04-0.26,0.12-0.36c0.08-0.11,0.25-0.15,0.51-0.14c0.16,0,0.28,0.02,0.37,0.05
			c0.09,0.03,0.16,0.07,0.2,0.12c0.04,0.05,0.07,0.11,0.08,0.18c0.01,0.07,0.02,0.14,0.02,0.21v0.64c0,0.13,0.04,0.23,0.11,0.3
			c0.08,0.07,0.17,0.11,0.3,0.11h0.91c0.13,0,0.23-0.04,0.3-0.11c0.08-0.07,0.11-0.17,0.11-0.3v-0.92c-0.01-0.13-0.05-0.23-0.12-0.3
			c-0.07-0.07-0.17-0.11-0.3-0.11h-0.77c-0.12-0.03-0.2-0.1-0.25-0.21c-0.05-0.11-0.01-0.21,0.12-0.32l0.12-0.08
			c0.07-0.05,0.11-0.14,0.11-0.25v-0.45c0-0.13,0.05-0.24,0.14-0.34c0.1-0.1,0.21-0.14,0.34-0.14h0.4c0.13,0,0.24,0.05,0.33,0.14
			c0.09,0.09,0.14,0.21,0.15,0.34v0.4c0,0.11,0.04,0.2,0.12,0.29l0.65,0.66c0.08,0.08,0.18,0.13,0.29,0.13
			c0.27,0.01,0.5,0.04,0.67,0.08c0.17,0.05,0.25,0.19,0.25,0.44l0.02,4.97c0,0.13,0.04,0.23,0.11,0.3c0.07,0.08,0.17,0.11,0.3,0.11
			h0.93c0.12,0,0.22-0.04,0.29-0.11c0.07-0.07,0.11-0.17,0.12-0.3v-5.26c0-0.13-0.04-0.23-0.11-0.3
			C1012.25,385.34,1012.16,385.3,1012.03,385.3z"/>
	</g>
</g>
<g>
	<g>
		<path class="st1" d="M216.89,492.08c-1.88,0-3.73-0.9-5.5-2.67c-12.4-9.11-8.8-14.39-3.37-22.37c0.81-1.19,1.68-2.46,2.58-3.86
			c8.69-15.35,16.6-29.98,24.26-44.12c8.13-15.04,16.54-30.59,25.92-47.04c0.38-0.65,0.73-1.3,1.08-1.95
			c1.18-2.19,2.4-4.46,4.41-6.19c0.3-0.26,0.98-1.35,1.48-2.15c1.62-2.62,3.46-5.58,6.08-5.58c0.61,0,1.19,0.17,1.74,0.49
			c0.04,0.02,0.3,0.15,1.25,0.15c0.43,0,0.89-0.02,1.36-0.04c0.55-0.03,1.1-0.05,1.65-0.05c1.16,0,4.7,0,5.86,3.29
			c0.24,0.68,0.55,1.12,0.88,1.58c1.85,2.59,1.73,4.47-2.57,11.91c-2.03,3.26-4.43,7.03-7.07,11.18
			c-8.68,13.65-19.91,31.31-28.08,46.25c8.91-8.73,18.86-16.52,28.56-24.12c6.26-4.91,12.74-9.99,18.72-15.16l0.15-0.13l0.18-0.09
			c1.35-0.71,3.86-2.58,6.29-4.39c5.76-4.3,8.67-6.33,10.54-6.33c0.18,0,0.34,0.02,0.5,0.05c0.35,0,1.26-0.48,3.45-3.67
			c0.17-0.25,0.32-0.46,0.44-0.63c1.26-1.74,15.53-13.22,25.3-17.58c0.52-0.39,1.02-0.78,1.5-1.17c2.33-1.86,4.74-3.79,8.53-3.79
			c0.06,0,0.11,0,0.17,0c6.25-4.55,26.36-16.94,28.35-16.94h0.92l0.53,0.77c0.73,1.09,0.06,2.15-0.17,2.49
			c-0.02,0.03-0.03,0.05-0.05,0.08c-0.13,0.9-0.9,1.49-4.04,3.92c-0.69,0.54-1.59,1.23-2.3,1.8c0.54,0.46,1,1.16,0.81,2.2
			c-0.18,1-0.65,1.49-8.13,7.6c-4.13,3.37-8.81,7.19-11.8,10.05l-0.09,0.09l-0.1,0.07c-4.25,3.01-7.46,5.51-9.93,10.29l-0.19,0.36
			l-0.33,0.24c-16.17,11.74-33.31,24.35-49.72,38.27c17.9,17.08,33.08,29.42,43.21,37.67c2.84,2.31,5.3,4.31,7.37,6.05
			c0.76,0.64,1.05,1.66,0.73,2.55c-0.31,0.86-1.12,1.41-2.05,1.41l-0.19-0.01c-3.14-0.25-7.27-0.82-11.5-3.03
			c-0.77-0.4-1.75-0.67-2.78-0.96c-1.36-0.38-2.89-0.8-4.31-1.64c-10.41-6.16-22.67-14.77-31.62-21.05
			c-5.54-3.89-10.8-7.58-12.82-8.69c-1.28,0.54-3.57,1.58-6.45,5.62c-0.88,1.23-2.09,2.06-3.15,2.79c-0.53,0.37-1.04,0.71-1.48,1.08
			c-10.24,8.71-19.59,18.85-28.63,28.65c-3.62,3.92-7.36,7.98-11.1,11.88l-0.07,0.08l-0.08,0.07c-1.53,1.25-3.15,3.53-4.71,5.74
			C224.29,487.65,221.15,492.08,216.89,492.08z"/>
		<path class="st0" d="M381.52,338.63c0.01,0,0.02,0,0.02,0.01c0.21,0.31-0.46,0.8-0.48,1.31c-0.02,0.52-6.91,5.32-7.23,6.12
			c-0.33,0.79,1.9,0.8,1.71,1.81c-0.19,1.01-13.34,10.89-19.43,16.71c-4.65,3.29-7.88,5.92-10.46,10.9
			c-17.38,12.61-34.69,25.41-51.26,39.58c23.49,22.56,42.22,36.87,52.03,45.1c0.42,0.35,0.29,0.95-0.23,0.95c-0.02,0-0.04,0-0.06,0
			c-2.83-0.22-6.78-0.72-10.84-2.84c-2.04-1.07-4.76-1.23-7.01-2.55c-18.25-10.81-41.73-28.82-45.29-30.15
			c-1.07,0.57-4.08,1.19-7.86,6.52c-1.08,1.53-2.92,2.35-4.34,3.56c-14.43,12.27-26.77,27-39.86,40.65
			c-4.57,3.72-8.66,14.07-14.06,14.07c-1.37,0-2.82-0.66-4.38-2.26c-12.85-9.39-7.5-13.06-0.48-24.01
			c18.07-31.88,32.05-59.37,50.23-91.24c1.56-2.65,2.78-5.68,5.12-7.69c1.47-1.26,3.91-7.32,6.44-7.32c0.29,0,0.57,0.08,0.86,0.25
			c0.52,0.31,1.27,0.39,2.13,0.39c0.93,0,1.99-0.1,3.01-0.1c1.86,0,3.6,0.32,4.24,2.14c1.31,3.73,4.26,2-1.56,12.06
			c-10.29,16.49-30.99,47.8-40.77,68.32c15.91-18.5,37.31-32.3,55.5-48.03c3.69-1.92,13.54-10.53,16.04-10.53
			c0.06,0,0.12,0,0.17,0.02c0.11,0.02,0.22,0.03,0.33,0.03c2.11,0,4.41-3.8,5.27-5c0.91-1.26,14.94-12.77,24.79-17.09
			c3-2.21,5.19-4.74,9.17-4.74c0.23,0,0.46,0.01,0.7,0.03C362.14,349.24,380.8,338.63,381.52,338.63 M381.52,335.21
			c-0.9,0-1.67,0-12.76,6.58c-3.98,2.36-11.15,6.72-16.16,10.36c-4.16,0.13-6.83,2.27-9.2,4.16c-0.45,0.36-0.87,0.7-1.31,1.03
			c-9.8,4.43-24.23,15.87-25.82,18.05c-0.13,0.18-0.28,0.4-0.46,0.66c-1.05,1.53-1.83,2.5-2.33,2.88c-0.07,0-0.13,0-0.2,0
			c-2.4,0-5.22,1.93-11.57,6.67c-2.37,1.77-4.83,3.61-6.06,4.25l-0.35,0.18l-0.3,0.26c-5.96,5.15-12.41,10.21-18.66,15.11
			c-6.89,5.4-13.91,10.9-20.61,16.78c7.28-12.48,15.76-25.82,22.63-36.63c2.59-4.07,5.04-7.92,7.05-11.14l0.03-0.05l0.03-0.05
			c4.71-8.14,4.75-10.57,2.48-13.76c-0.3-0.42-0.5-0.7-0.66-1.15c-1.03-2.94-3.55-4.43-7.47-4.43c-0.6,0-1.18,0.03-1.73,0.05
			c-0.46,0.02-0.9,0.04-1.27,0.04c-0.31,0-0.49-0.01-0.58-0.03c-0.75-0.4-1.58-0.62-2.41-0.62c-3.57,0-5.77,3.54-7.53,6.39
			c-0.38,0.61-0.94,1.52-1.19,1.8c-2.22,1.93-3.57,4.42-4.75,6.63c-0.36,0.66-0.69,1.29-1.04,1.88
			c-9.41,16.5-17.83,32.06-25.96,47.11c-7.63,14.12-15.53,28.71-24.24,44.09c-0.86,1.34-1.7,2.57-2.5,3.75
			c-3.01,4.43-5.39,7.93-5.31,12.01c0.08,4.26,2.77,8.04,8.98,12.62c2.07,2.05,4.3,3.08,6.62,3.08c5.15,0,8.69-5.01,11.82-9.43
			c1.5-2.12,3.05-4.31,4.4-5.4l0.16-0.13l0.15-0.15c3.75-3.92,7.5-7.98,11.12-11.91c9.01-9.77,18.32-19.87,28.48-28.5
			c0.37-0.31,0.84-0.63,1.33-0.97c1.18-0.81,2.53-1.73,3.58-3.21c2.1-2.96,3.77-4.1,4.96-4.69c2.29,1.4,7.17,4.83,11.92,8.16
			c8.97,6.3,21.26,14.93,31.73,21.13c1.61,0.95,3.26,1.41,4.72,1.82c0.94,0.26,1.83,0.51,2.44,0.83c4.5,2.35,8.86,2.96,12.15,3.22
			c0.11,0.01,0.22,0.01,0.33,0.01c1.66,0,3.1-1,3.66-2.54c0.57-1.56,0.07-3.35-1.24-4.45c-2.09-1.75-4.55-3.75-7.4-6.07
			c-9.85-8.01-24.47-19.91-41.72-36.26c15.92-13.4,32.49-25.59,48.16-36.96l0.66-0.48l0.37-0.72c2.11-4.08,4.61-6.29,9.4-9.68
			l0.21-0.15l0.18-0.17c2.94-2.81,7.8-6.77,11.7-9.96c7.7-6.29,8.43-6.92,8.74-8.61c0.1-0.56,0.14-1.34-0.18-2.16
			c0.37-0.29,0.73-0.57,1.03-0.8c3.09-2.39,4.28-3.31,4.62-4.64c1.12-1.93,0.5-3.42,0.02-4.15l-1.02-1.53L381.52,335.21
			L381.52,335.21z"/>
	</g>
	<g>
		<path class="st1" d="M578.17,419.56c-3.73,0-10.83-8.7-13.68-12.91c-4.64-6.84-3.76-9.04-3.47-9.77
			c10.22-25.65,27.02-42.42,51.34-51.27c1.19-0.43,2.37-0.65,3.51-0.65c5.95,0,8.48,5.68,8.58,5.92l0.16,0.36
			c2.56,5.9,5.46,12.59,0.69,18.66c-8.18,10.39-16.55,19.3-36.28,23.04l-0.84,0.16l-0.63-0.58c-1.25-1.14-1.92-2.09-2.5-2.92
			c-0.4-0.57-0.74-1.06-1.25-1.57c-3.2,4.23-4.72,8.21-4.7,12.32c12.37-1.86,24.18-6.78,35.61-11.55c4.9-2.04,9.97-4.16,15.04-6.01
			c0.28-0.1,0.59-0.15,0.93-0.15c0.17,0,1.64,0.03,2.43,0.96c0.37,0.44,0.53,1,0.44,1.55c-0.2,1.19-0.99,2.33-1.74,3.43
			c-0.44,0.64-0.9,1.31-1.08,1.76c-0.72,1.85-3.56,3.09-7.2,4.51c-0.55,0.22-1.23,0.48-1.48,0.6c-2.59,2.2-3.63,2.53-5.88,3.25
			l-0.76,0.24c-0.24,0.08-0.42,0.52-0.71,1.24c-0.43,1.1-1.01,2.6-2.69,3.36c-2.11,0.96-3.58,1.86-5.13,2.82
			c-1.92,1.18-3.91,2.41-7.21,3.81c-1.6,0.68-3.8,1.79-6.12,2.96c-4.98,2.52-10.62,5.37-14.77,6.34
			C578.59,419.54,578.38,419.56,578.17,419.56L578.17,419.56z M612.23,360.71c-0.82,0.39-1.87,1-2.48,1.36
			c-0.68,0.4-1.32,0.77-1.84,1.02c-6.6,3.17-14.8,13.08-18.6,17.99c5.02-1.2,13.33-6.03,18.5-11.84
			C609.77,367.02,611.99,363.86,612.23,360.71z"/>
		<path class="st0" d="M615.87,346.67c4.25,0,6.53,3.76,7.01,4.89c2.52,5.81,5.3,11.91,1.07,17.28
			c-8.72,11.08-16.92,18.94-35.25,22.42c-2.51-2.29-2.35-3.7-5.17-5.65c-4.01,4.84-6.73,10.29-6.03,16.69
			c18.61-2.33,35.35-11.5,52.84-17.9c0.09-0.03,0.21-0.05,0.34-0.05c0.52,0,1.23,0.24,1.18,0.52c-0.24,1.44-2.16,3.38-2.73,4.86
			c-0.72,1.85-7.49,3.82-8.11,4.35c-2.66,2.27-3.37,2.34-6.15,3.24c-2.04,0.66-1.47,3.73-3.57,4.68c-4.84,2.2-6.46,4.13-12.3,6.61
			c-4.97,2.12-14.69,7.82-20.61,9.22c-0.07,0.02-0.14,0.02-0.22,0.02c-3.56,0-17.14-16.39-15.56-20.34
			c9.69-24.32,25.68-41.32,50.34-50.29C614.01,346.83,614.98,346.67,615.87,346.67 M587.23,383.06c7.71,0,27.93-13.1,26.67-23.87
			c-0.05-0.4-0.3-0.56-0.68-0.56c-1.39,0-4.56,2.19-6.06,2.91c-9.34,4.48-21.35,21.33-21.35,21.33
			C586.22,383,586.69,383.06,587.23,383.06 M615.87,343.25L615.87,343.25c-1.34,0-2.71,0.25-4.09,0.76
			c-24.81,9.03-41.93,26.12-52.35,52.24c-0.7,1.76-0.92,4.63,3.65,11.37c0.09,0.14,9.33,13.66,15.09,13.66c0.34,0,0.68-0.04,1-0.12
			c4.35-1.02,10.09-3.93,15.16-6.48c2.3-1.16,4.46-2.25,6.01-2.91c3.41-1.45,5.55-2.77,7.43-3.93c1.51-0.93,2.93-1.8,4.94-2.72
			c2.31-1.05,3.1-3.09,3.58-4.3c0.05-0.12,0.11-0.27,0.16-0.4l0.23-0.07c2.44-0.78,3.67-1.23,6.28-3.41
			c0.28-0.12,0.77-0.31,1.18-0.47c4.18-1.63,7.21-2.98,8.18-5.48c0.11-0.27,0.58-0.96,0.89-1.41c0.82-1.2,1.76-2.55,2.02-4.12
			c0.18-1.05-0.12-2.12-0.82-2.94c-1.23-1.46-3.17-1.57-3.74-1.57c-0.54,0-1.05,0.09-1.52,0.26c-5.1,1.87-10.19,3.99-15.1,6.04
			c-11.17,4.66-21.79,9.08-33.11,11.09c0.34-2.44,1.3-4.88,2.93-7.41c0.57,0.81,1.3,1.77,2.52,2.88l1.26,1.15l1.68-0.32
			c18.46-3.5,27.35-11.02,37.3-23.66c5.41-6.87,2.15-14.37-0.47-20.4l-0.16-0.36C624.91,347.61,621.51,343.25,615.87,343.25
			L615.87,343.25z M594.79,377.03c4.24-4.93,9.58-10.36,13.86-12.41c0.2-0.1,0.41-0.2,0.63-0.32c-0.67,1.21-1.59,2.49-2.75,3.79
			C603.21,371.81,598.73,374.97,594.79,377.03L594.79,377.03z"/>
	</g>
	<g>
		<path class="st1" d="M956.94,365.55c-4.33,0-12.13-12.2-12.2-12.33c-5.21-8.2-4.1-10.57-3.74-11.34
			c12.61-26.85,29.22-41.57,53.85-47.73c0.59-0.15,1.97-0.49,3.56-0.49c4.39,0,7.67,2.59,9.24,7.3l0.2,0.61
			c1.91,5.72,3.89,11.63-1.08,17.22c-10.23,11.51-19.08,18.22-36.5,20.69c-0.17,0.02-0.34,0.04-0.51,0.04
			c-1.11,0-2.19-0.51-2.88-1.36c-0.65-0.79-1.08-1.48-1.45-2.1c-0.36-0.59-0.68-1.1-1.16-1.64c-3.44,4.03-5.2,7.92-5.42,12.02
			c12.23-1.07,22.74-4.76,33.83-8.65c4.82-1.69,9.81-3.44,15.06-5.02l0.1-0.03c1.07-0.33,2.63-0.77,3.79-0.77
			c0.85,0,1.51,0.25,1.96,0.73c0.39,0.42,0.59,0.96,0.55,1.54c-0.1,1.63-1.54,2.6-2.69,3.38c-0.45,0.3-1.2,0.81-1.33,1.06
			c-0.72,1.58-3.06,3.31-6.34,5.42c-0.33,0.21-0.58,0.37-0.7,0.46l-0.73,0.56c-1.79,1.36-2.01,1.5-3.91,1.98l-0.88,0.23
			c-0.95,0.25-3.07,1.45-4.78,2.41c-1.62,0.91-3.14,1.77-4.21,2.18c-2.07,0.79-2.87,1.47-3.81,2.25c-1.17,0.98-2.5,2.09-5.97,3.33
			c-1.64,0.58-3.89,1.56-6.28,2.59c-5.12,2.21-10.93,4.72-15.13,5.45C957.25,365.54,957.1,365.55,956.94,365.55L956.94,365.55z
			 M994.25,308.84c-0.84,0.34-1.9,0.88-2.53,1.19c-0.7,0.35-1.37,0.69-1.89,0.9c-6.53,2.67-14.94,11.52-19.18,16.33
			c5.71-1.46,14.46-6.22,19.58-11.62C992.52,313.23,993.89,310.9,994.25,308.84z"/>
		<path class="st0" d="M998.42,295.37c2.62,0,5.93,1.07,7.61,6.12c1.91,5.72,3.94,11.12-0.53,16.15
			c-9.18,10.34-17.68,17.61-35.46,20.13c-0.09,0.01-0.18,0.02-0.27,0.02c-0.6,0-1.18-0.27-1.56-0.73c-1.58-1.93-1.69-3.24-4.05-5.09
			c-4.29,4.6-7.34,9.87-7.02,16.3c18.72-1.21,33.26-8.53,51.1-13.88c0.32-0.1,2.27-0.73,3.4-0.73c0.49,0,0.83,0.12,0.81,0.46
			c-0.09,1.46-3.2,2.38-3.87,3.83c-0.82,1.8-5.87,4.74-6.52,5.23c-2.79,2.1-2.1,1.73-4.93,2.47c-2.07,0.54-7.02,3.83-9.17,4.65
			c-4.97,1.91-3.75,3.43-9.74,5.56c-5.09,1.82-15.13,6.93-21.12,7.97c-0.05,0.01-0.1,0.01-0.16,0.01
			c-3.46,0-16.21-17.36-14.39-21.23c11.31-24.1,26.65-40.28,52.72-46.8C995.95,295.64,997.09,295.37,998.42,295.37 M967.56,329.44
			c7.96,0,29.01-11.86,28.48-22.03c-0.02-0.43-0.3-0.61-0.73-0.61c-1.44,0-4.63,1.93-6.14,2.54c-9.59,3.92-22.58,20.02-22.58,20.02
			C966.89,329.42,967.21,329.44,967.56,329.44 M998.42,291.94c-1.8,0-3.32,0.38-3.97,0.54c-25.18,6.3-42.14,21.31-54.99,48.67
			c-0.8,1.71-1.28,4.93,3.84,12.99c1.9,2.99,4.21,6.03,6.34,8.37c3.05,3.33,5.23,4.75,7.31,4.75c0.25,0,0.5-0.02,0.74-0.06
			c4.4-0.76,10.3-3.32,15.51-5.57c2.36-1.02,4.59-1.99,6.18-2.55c3.75-1.34,5.27-2.61,6.49-3.63c0.88-0.74,1.52-1.27,3.32-1.96
			c1.18-0.45,2.76-1.35,4.44-2.29c1.36-0.77,3.64-2.05,4.37-2.24c0.34-0.09,0.62-0.16,0.87-0.22c2.15-0.54,2.57-0.79,4.53-2.28
			l0.73-0.55c0.09-0.06,0.31-0.2,0.59-0.38c3.56-2.29,5.86-4.01,6.85-5.89c0.2-0.16,0.59-0.43,0.86-0.61
			c1.31-0.89,3.29-2.22,3.44-4.7c0.06-1.05-0.3-2.06-1.01-2.82c-0.54-0.58-1.54-1.27-3.21-1.27c-1.07,0-2.4,0.26-4.29,0.85
			l-0.09,0.03c-5.29,1.59-10.29,3.34-15.13,5.04c-10.34,3.63-20.16,7.08-31.3,8.35c0.48-2.42,1.59-4.8,3.36-7.23
			c0.35,0.56,0.78,1.22,1.38,1.95c1.02,1.24,2.59,1.99,4.21,1.99c0.25,0,0.5-0.02,0.75-0.05c19.72-2.8,29.01-11.65,37.54-21.25
			c5.63-6.33,3.29-13.3,1.42-18.9l-0.2-0.61C1006.83,293.04,1001.42,291.94,998.42,291.94L998.42,291.94z M977.02,322.94
			c4.31-4.33,9.41-8.77,13.45-10.42c0.08-0.03,0.16-0.06,0.24-0.1c-0.49,0.67-1.07,1.36-1.73,2.05
			C985.74,317.89,981.21,320.86,977.02,322.94L977.02,322.94z"/>
	</g>
	<g>
		<path class="st1" d="M631.95,454.67c-1.46,0-2.61-1.29-3.03-2.15c-0.38-0.78-0.23-1.61-0.09-2.41c0.12-0.7,0.26-1.49,0.04-2.03
			c-0.75-1.85-0.08-3.58,0.46-4.97c0.31-0.79,0.59-1.53,0.57-2.1c-0.05-0.98,0.14-1.86,0.55-2.59c-0.22-0.1-0.42-0.24-0.59-0.42
			c-0.62-0.67-0.75-1.62-0.57-4.23c0.28-4.05,2.17-8.06,4.18-12.31c1.73-3.66,3.51-7.44,4.45-11.58
			c1.04-4.58,11.25-22.75,23.08-43.78c10.98-19.53,22.33-39.72,25.2-47.25c0.37-0.96,0.78-2.37,1.21-3.85
			c1.68-5.78,2.75-9.06,5.16-9.33c0.47-0.05,1.53-0.07,2.37-0.07c8.2,0,9.12,1.14,9.56,1.69c1.22,1.53,4.09,11.21,3.89,13.89
			c-0.13,1.77-1.1,2.76-1.8,3.48c-0.6,0.61-0.85,0.89-0.88,1.49c-0.1,1.89-1.01,2.68-1.61,3.2c-0.44,0.38-0.66,0.57-0.74,1.63
			c-0.16,2.13-3.39,7.53-11.26,20.28c-3.34,5.42-7.04,11.41-10.31,17.03c19.68-7.05,43.48-14.66,62.06-15.8
			c0.07,0,0.14-0.01,0.21-0.01c1.66,0,3.12,1.17,3.48,2.79c0,0.01,0.01,0.03,0.01,0.04c2.13-4.04,4.24-8.09,6.31-12.05
			c3.57-6.84,7.26-13.92,10.98-20.82c0.9-2.11,1.92-4.17,2.91-6.16c1.92-3.87,3.73-7.52,4.77-11.54l0.04-0.16l0.07-0.15
			c0.81-1.68,2.6-3.68,6.57-3.68c2.39,0,4.96,0.7,7.02,1.27c0.5,0.14,0.98,0.27,1.41,0.38l0.51,0.13l0.35,0.39
			c3.72,4.13,4.07,12.78,0.7,17.45c-2.64,3.26-4.51,6.77-6.48,10.49c-1.33,2.5-2.7,5.08-4.31,7.55
			c-4.67,8.37-9.37,16.89-13.92,25.13c-7.21,13.07-14.66,26.58-22.19,39.82c-3.72,6.54-6.57,13.04-9.59,19.92
			c-2.16,4.93-4.4,10.03-7.02,15.24c-0.76,1.52-2.14,2.35-3.88,2.35c0,0,0,0,0,0c-3.45,0-7.8-3.34-10.58-6.65
			c-1.4-1.67-3.68-4.87-3.2-7.63c1.03-5.89,5.25-12.46,9.71-19.42c2.73-4.26,5.56-8.67,7.61-12.91c2.2-4.56,4.92-8.84,7.56-12.99
			c1.13-1.78,2.29-3.6,3.4-5.44c-0.11,0.02-0.23,0.04-0.36,0.06c-3.67,0.61-10.49,1.75-13.13,1.75c-0.12,0-0.23,0-0.33-0.01
			c-1.48,0-13.12,2.78-21.62,4.8c-11.33,2.7-16.05,3.8-17.17,3.8c-0.35,0-0.66-0.08-0.94-0.23c-0.31-0.17-0.66-0.44-0.9-0.83
			c-0.6,0.2-1.39,0.5-1.98,0.72c-2.05,0.77-3.35,1.24-4.28,1.24c-0.71,0-1.17-0.28-1.43-0.51c-0.73-0.66-0.85-1.51-0.84-2.21
			c-0.02,0.01-0.31,0.1-0.31,0.1c-0.24,0.07-0.43,0.13-0.73,0.67c-4.56,8.17-9.11,16.52-13.51,24.6
			c-9.31,17.07-18.1,33.2-24.84,43.77C633.48,454.26,632.76,454.67,631.95,454.67z"/>
		<path class="st0" d="M779.2,302.46c2.72,0,5.85,1.05,8.01,1.59c3.31,3.68,3.42,11.37,0.58,15.3c-4.52,5.57-6.96,12.16-10.87,18.15
			c-12.09,21.64-23.84,43.4-36.14,64.99c-6.51,11.43-10.48,22.96-16.65,35.23c-0.5,0.99-1.33,1.41-2.35,1.41
			c-4.53,0-12.78-8.31-12.09-12.27c1.6-9.12,11.84-20.82,17.17-31.88c3.66-7.58,8.76-14.33,12.85-21.65
			c-0.95,0.3-1.75,0.49-2.19,0.55c-1.35,0.19-11.56,2.03-14.73,2.03c-0.09,0-0.18,0-0.26,0c-0.02,0-0.04,0-0.06,0
			c-3.13,0-36.57,8.61-38.8,8.61c-0.05,0-0.09,0-0.1-0.01c-0.76-0.42,0.13-0.92-0.74-1.25c-0.05-0.02-0.1-0.02-0.18-0.02
			c-1.18,0-5.78,2.18-7.07,2.18c-0.13,0-0.23-0.02-0.29-0.07c-0.64-0.57,0.12-2.07-0.4-2.61c-0.18-0.18-0.43-0.25-0.72-0.25
			c-0.56,0-1.23,0.25-1.68,0.39c-0.68,0.21-1.21,0.57-1.72,1.47c-14.25,25.57-28.43,52.81-38.3,68.29
			c-0.14,0.23-0.33,0.32-0.54,0.32c-0.55,0-1.23-0.64-1.5-1.19c-0.34-0.69,0.67-2.65-0.01-4.34c-0.87-2.14,1.26-4.33,1.16-6.51
			c-0.03-0.69,0.09-1.4,0.52-1.94c1.35-1.71,1.68-5.53,1.13-5.62c0,0-0.01,0-0.01,0c-0.38,0-1.51,3.5-2.04,3.5
			c-0.25,0-0.36-0.76-0.21-2.99c0.49-7.05,6.51-14.45,8.59-23.63c1.95-8.6,42.33-75.37,48.21-90.8c1.35-3.53,3-11.87,4.95-12.09
			c0.3-0.03,1.12-0.06,2.18-0.06c2.89,0,7.54,0.2,8.22,1.05c0.93,1.16,3.69,10.34,3.52,12.69c-0.18,2.35-2.54,2.52-2.68,5.01
			c-0.14,2.49-2.09,1.5-2.34,4.79c-0.25,3.29-14.6,24.49-23.66,40.64c19.2-7,45.77-16.05,65.96-17.29c0.04,0,0.07,0,0.11,0
			c0.85,0,1.62,0.6,1.8,1.44c0.36,1.66,0.59,3.37,0.75,5.08c6.66-12.5,13.07-25.12,19.77-37.53c2.57-6.04,6.13-11.61,7.8-18.01
			C775.16,303.11,777.06,302.46,779.2,302.46 M779.2,299.04c-5.12,0-7.28,2.91-8.11,4.65l-0.14,0.3l-0.08,0.32
			c-1,3.85-2.77,7.43-4.65,11.21c-0.99,1.99-2.01,4.05-2.92,6.18c-3.71,6.88-7.39,13.93-10.95,20.75c-1.63,3.13-3.29,6.31-4.97,9.5
			c-0.92-0.74-2.08-1.19-3.32-1.19c-0.11,0-0.21,0-0.32,0.01c-17.4,1.07-39.23,7.71-58.08,14.32c2.61-4.36,5.36-8.82,7.9-12.94
			c8.53-13.83,11.31-18.51,11.51-21.05c0.01-0.18,0.03-0.3,0.05-0.38c0.04-0.03,0.07-0.06,0.11-0.09c0.66-0.58,2.04-1.78,2.19-4.36
			c0.08-0.11,0.26-0.29,0.4-0.42c0.79-0.81,2.1-2.15,2.28-4.55c0.22-2.92-2.65-13.07-4.26-15.09c-0.79-0.98-1.87-2.33-10.89-2.33
			c-0.55,0-1.89,0.01-2.55,0.08c-3.66,0.4-4.97,4.88-6.62,10.55c-0.42,1.45-0.82,2.82-1.16,3.72c-2.83,7.41-14.15,27.55-25.09,47.02
			c-13.74,24.44-22.22,39.66-23.26,44.25c-0.9,3.96-2.64,7.65-4.33,11.23c-2.08,4.4-4.04,8.55-4.34,12.92
			c-0.16,2.34-0.19,4,0.82,5.28c-0.18,0.67-0.26,1.4-0.22,2.17c0,0.24-0.27,0.93-0.45,1.39c-0.58,1.49-1.46,3.75-0.46,6.23
			c0.03,0.16-0.08,0.75-0.14,1.1c-0.16,0.92-0.38,2.18,0.24,3.46c0.73,1.5,2.47,3.11,4.57,3.11c1.39,0,2.67-0.71,3.43-1.9
			c6.77-10.62,15.57-26.77,24.89-43.87c4.1-7.51,8.32-15.26,12.56-22.88c0.06,0.06,0.12,0.12,0.19,0.18
			c0.48,0.43,1.32,0.95,2.57,0.95c1.22,0,2.58-0.49,4.88-1.35c0.28-0.1,0.6-0.23,0.92-0.34c0.2,0.15,0.38,0.27,0.53,0.35
			c0.53,0.29,1.12,0.44,1.77,0.44c1.26,0,4.67-0.77,17.56-3.85c7.72-1.84,19.34-4.61,21.25-4.75c0.1,0,0.2,0,0.31,0
			c2.02,0,5.96-0.56,10.05-1.22c-0.47,0.74-0.94,1.48-1.41,2.22c-2.66,4.19-5.42,8.52-7.66,13.17c-2,4.14-4.8,8.51-7.51,12.73
			c-4.56,7.11-8.87,13.82-9.96,20.05c-0.57,3.26,1.63,6.71,3.57,9.02c2.81,3.35,7.62,7.26,11.89,7.26c2.38,0,4.35-1.2,5.41-3.3
			c2.64-5.25,4.89-10.37,7.06-15.33c3-6.84,5.83-13.29,9.51-19.75c7.54-13.25,15-26.77,22.2-39.84c4.54-8.23,9.23-16.73,13.89-25.08
			c1.64-2.52,3.02-5.12,4.36-7.63c1.93-3.64,3.76-7.07,6.24-10.13l0.06-0.08l0.06-0.08c3.85-5.34,3.45-14.86-0.82-19.6l-0.7-0.78
			l-1.01-0.25c-0.42-0.11-0.89-0.23-1.37-0.37C784.51,299.77,781.82,299.04,779.2,299.04L779.2,299.04z"/>
	</g>
	<g>
		<path class="st1" d="M775.58,395.07c-1.07,0-1.88-0.23-2.49-0.69c-7.55-5.79-8.41-15.31-6.71-22.29
			c2.67-13.13,16.97-33.88,27.96-43.63c0.41-0.36,3.38-2.55,3.81-2.84c5.05-3.31,11.86-5.45,17.34-5.45c2.52,0,4.67,0.45,6.38,1.33
			c3.54,1.82,4.23,5.68,4.85,9.08c0.33,1.81,0.63,3.51,1.3,4.72c2.04,3.68-0.45,9.61-3.09,15.9c-0.14,0.34-0.29,0.68-0.43,1.02
			c9.5-6.81,21.94-25.33,24.71-30.29c2.82-4.88,5.98-9.08,9.4-12.51c0.53-0.53,2.44-1.56,3.33-1.62c0.22-0.01,0.42-0.02,0.61-0.02
			c1.5,0,2.41,0.39,3.08,0.67c0.28,0.12,0.5,0.21,0.72,0.26c2.79,0.66,3.1,2.68,3.2,3.35l0.01,0.05c0.36,0.86,0.72,1.34,1.1,1.85
			c0.55,0.74,1.18,1.58,1.47,3.17c0.19,1.02-0.58,3.71-1.28,4.5c-6.81,7.67-15.18,17.11-17.87,28.31
			c13.2-12.95,26.73-26.39,36.69-42.77c0.4-0.66,1.19-1.45,2.63-1.45c0.5,0,0.97,0.09,1.44,0.18c0.26,0.05,0.54,0.11,0.83,0.14
			c0.27,0.03,0.55,0.04,0.83,0.05c1.25,0.05,2.95,0.12,4.21,1.57c1.49,1.73,1.31,3.88,1.17,5.45l-0.02,0.25
			c-0.06,0.72-0.07,1.41-0.08,2.08c-0.03,2.43-0.07,4.95-2.74,7.8c-7.01,7.48-11.13,14.58-13.41,23.26
			c4.72-2.49,13.72-9.63,20.99-16.27l0.06-0.06l0.07-0.05c1.32-0.98,2.63-1.94,3.93-2.9c7.53-5.54,14.64-10.77,21.08-17.42
			l0.17-0.18l0.21-0.12c1.71-0.97,3.86-3.92,5.94-6.78c3.46-4.74,7.04-9.65,11.19-9.65c1.64,0,3.15,0.75,4.49,2.23l0.18,0.2
			l0.11,0.25c0.7,1.56,0.53,3.57,0.37,5.51c-0.11,1.27-0.24,2.85,0.04,3.5l0.38,0.89l-0.56,0.78
			c-10.75,15.03-13.74,43.75-10.42,62.83l0.18,1.05l-0.86,0.63c-2.35,1.72-4.63,2.59-6.79,2.59c-5.74,0-9.07-5.81-11.33-11.02
			c-1.46-1.27-2.81-2.35-4.12-3.39c-4.01-3.2-7.18-5.72-9.37-10.53l-1.12-2.46l2.71,0.04c5.26,0.08,8.91,1.34,11.32,2.18
			c1.12,0.39,2.08,0.72,2.6,0.72c0.09,0,0.13-0.01,0.13-0.01c1.05-0.67,1.73-7.73,2.75-18.44c-1.57,1.05-7.24,5.28-27.64,21.77
			l-0.77,0.62c-1.38,1.23-2.66,2.63-4.01,4.1c-2.37,2.59-4.82,5.27-8.24,7.28c-0.52,0.33-2.57,2.45-3.45,3.36
			c-0.4,0.41-0.73,0.75-0.93,0.96l-0.13,0.13l-0.16,0.1c-0.94,0.59-1.9,1.92-2.82,3.21c-1.71,2.39-3.66,5.11-6.83,5.11
			c-0.62,0-1.25-0.11-1.88-0.33l-0.28-0.1l-0.23-0.19c-5.15-4.14-8.29-8.6-9.22-13.05c-3.19,2.31-6.18,5.74-9.08,9.07
			c-2.34,2.68-4.76,5.45-7.3,7.67l-0.7,0.61l-0.89-0.25c-5.29-1.5-9.54-6.83-11.9-14.79c-7.86,7.39-17.56,11.94-19.81,12.94
			c-1.84,1.1-3.32,1.19-4.4,1.26c-0.46,0.03-0.85,0.05-1.05,0.15c-1.49,0.86-2.63,2.2-3.83,3.61c-0.73,0.86-1.49,1.76-2.39,2.61
			c-0.48,0.45-1.07,0.69-1.71,0.69c-0.69,0-1.25-0.27-1.7-0.48c-0.05-0.02-0.11-0.05-0.17-0.08
			C793.95,389.18,780.8,395.07,775.58,395.07C775.58,395.07,775.58,395.07,775.58,395.07z M788.52,364.22
			c-2.22,3.41-3.69,7.12-4.21,10.68c3.12-1.2,5.94-2.98,7.97-5.03C790.73,368.05,789.53,366.13,788.52,364.22z M813.69,337.68
			c-0.33,0.07-0.72,0.2-1.1,0.32c-0.44,0.14-0.88,0.28-1.32,0.38c-1.43,0.33-3.04,0.77-3.98,1.75c-0.97,1.01-1.62,1.5-2.79,2.09
			c-0.05,0.11-0.14,0.74-0.19,1.07c-0.11,0.75-0.23,1.61-0.91,2.2c-1.98,1.74-3.53,7.15-2.45,10.52c0.42,1.31,1.07,1.8,1.67,1.99
			c2.09-2.1,9.35-12.58,10.6-19.07C813.31,338.51,813.5,338.09,813.69,337.68z"/>
		<path class="st0" d="M948.2,294.79c1.08,0,2.16,0.5,3.22,1.67c1.02,2.26-0.52,6.85,0.39,8.98
			c-10.93,15.28-14.15,44.37-10.71,64.11c-2.18,1.59-4.09,2.26-5.78,2.26c-4.85,0-7.84-5.49-9.91-10.34
			c-6.15-5.38-10.62-7.59-13.36-13.59c7.75,0.12,11.69,2.89,13.96,2.89c2.73,0,3.06-4,4.72-21.41c-0.67-0.48-1.21-0.74-1.65-0.74
			c-0.25,0-0.47,0.09-0.65,0.26c-3.23,1.88-28.36,22.27-29.01,22.79c-4.15,3.69-7,8.28-12.04,11.24c-0.98,0.62-3.89,3.75-4.72,4.57
			c-3.07,1.93-4.92,8.06-8.73,8.06c-0.42,0-0.86-0.07-1.33-0.23c-4.51-3.62-8.94-8.74-8.87-14.63c-7.06,3.74-12.6,12.84-18.93,18.36
			c-5.96-1.7-9.76-8.8-11.46-16.47c-6.91,7.36-16.7,12.63-21.52,14.75c-2.5,1.54-4.12,0.76-5.42,1.4c-2.87,1.64-4.31,4.31-6.63,6.51
			c-0.17,0.16-0.35,0.22-0.54,0.22c-0.62,0-1.33-0.65-2.01-0.65c-0.2,0-0.4,0.06-0.6,0.21c-2.68,2.27-16.14,8.35-21.04,8.35
			c-0.65,0-1.14-0.11-1.45-0.34c-6.89-5.28-7.65-14.12-6.08-20.52c2.71-13.32,17.13-33.62,27.43-42.75c0.3-0.27,3.18-2.4,3.62-2.69
			c4.58-3,11.1-5.17,16.4-5.17c2.13,0,4.07,0.35,5.6,1.14c4.46,2.29,3.28,9.23,5.44,13.12c2.19,3.96-3.01,13.22-5.34,19.84
			c10.31-3.59,26.45-27.71,29.53-33.21c2.5-4.34,5.54-8.55,9.12-12.13c0.33-0.33,1.86-1.1,2.22-1.12c0.18-0.01,0.35-0.02,0.51-0.02
			c1.75,0,2.33,0.63,3.4,0.88c2.05,0.48,1.8,1.85,1.97,2.28c1.01,2.48,2.11,2.6,2.52,4.79c0.09,0.5-0.53,2.67-0.87,3.06
			c-7.78,8.77-16.54,18.9-18.68,31.13c-0.06,0.34,1.09,0.76,1.76,0.76c0.18,0,0.33-0.03,0.4-0.1c13.89-13.61,27.75-27.2,38.09-44.21
			c0.29-0.48,0.69-0.63,1.16-0.63c0.58,0,1.29,0.22,2.07,0.31c1.34,0.15,2.93-0.12,3.93,1.04c1.08,1.25,0.87,2.93,0.74,4.44
			c-0.29,3.45,0.51,5.79-2.36,8.85c-7.63,8.14-12.28,16.19-14.53,27.05c4.41-0.25,18.46-12.1,24.52-17.63
			c8.93-6.64,17.55-12.59,25.22-20.51C936.78,308.22,942.58,294.79,948.2,294.79 M803.01,359.83c1.12,0,10.41-12.86,11.9-20.56
			c0.16-0.81,1.36-2.34,0.62-2.93c-0.4-0.32-0.85-0.44-1.33-0.44c-1.03,0-2.2,0.55-3.31,0.81c-1.75,0.41-3.59,0.94-4.83,2.23
			c-0.84,0.87-1.34,1.25-2.33,1.75c-1.34,0.68-0.91,3.05-1.45,3.51c-3.85,3.38-5.39,14.99,0.71,15.62
			C803,359.82,803,359.83,803.01,359.83 M782.38,377.34c4.37-1.22,9.17-3.76,12.2-7.48c-2.57-2.64-4.23-5.62-5.79-8.95
			C785.22,365.45,782.52,371.39,782.38,377.34 M948.2,291.36c-5.02,0-8.86,5.26-12.57,10.35c-1.88,2.58-4.02,5.51-5.41,6.3
			l-0.43,0.24l-0.34,0.35c-6.34,6.55-13.4,11.74-20.87,17.24c-1.3,0.96-2.61,1.92-3.93,2.9l-0.14,0.1l-0.13,0.12
			c-5.93,5.42-12.31,10.55-16.84,13.67c2.36-6.52,6.06-12.24,11.66-18.22c3.12-3.33,3.16-6.31,3.2-8.95
			c0.01-0.67,0.02-1.3,0.07-1.96l0.02-0.24c0.15-1.77,0.38-4.45-1.58-6.72c-1.74-2.02-4.05-2.11-5.44-2.16
			c-0.27-0.01-0.52-0.02-0.7-0.04c-0.2-0.02-0.44-0.07-0.7-0.12c-0.52-0.1-1.1-0.21-1.76-0.21c-1.74,0-3.2,0.81-4.09,2.28
			c-8.53,14.03-19.76,25.93-31.15,37.24c3.68-7.92,9.84-14.87,15.07-20.75c1.05-1.19,1.96-4.41,1.68-5.95
			c-0.37-1.98-1.18-3.08-1.78-3.88c-0.32-0.43-0.57-0.76-0.82-1.32c-0.54-3.03-2.72-4.16-4.47-4.58c-0.09-0.02-0.26-0.09-0.45-0.17
			c-0.76-0.32-1.9-0.8-3.74-0.8c-0.23,0-0.46,0.01-0.72,0.02c-1.36,0.08-3.65,1.34-4.43,2.11c-3.54,3.53-6.79,7.86-9.67,12.84
			c-1.32,2.36-5.9,9.54-11.76,16.91c-2.77,3.48-5.15,6.15-7.19,8.21c1.63-4.49,2.45-8.57,0.72-11.69c-0.53-0.96-0.83-2.6-1.12-4.2
			c-0.65-3.61-1.46-8.1-5.75-10.3c-1.96-1.01-4.37-1.52-7.16-1.52c-5.79,0-12.97,2.25-18.28,5.73c-0.45,0.29-3.49,2.53-4.01,2.99
			c-11.2,9.93-25.64,30.66-28.51,44.57c-1.81,7.5-0.84,17.72,7.34,23.99c0.92,0.7,2.07,1.05,3.53,1.05c5.21,0,17.27-5.24,21.96-8.23
			c0.46,0.17,1.04,0.33,1.7,0.33c1.07,0,2.09-0.41,2.88-1.15c0.98-0.93,1.77-1.86,2.53-2.76c1.07-1.27,2.01-2.37,3.21-3.13
			c0.13-0.01,0.32-0.03,0.47-0.03c1.1-0.07,2.92-0.19,5.08-1.45c2.27-1.02,10.7-5.01,18.23-11.45c2.66,7.14,6.96,11.92,12.23,13.42
			l1.79,0.51l1.4-1.22c2.63-2.29,5.08-5.11,7.46-7.83c2.24-2.57,4.53-5.19,6.88-7.26c1.51,3.96,4.57,7.84,9.06,11.45l0.47,0.38
			l0.57,0.19c0.81,0.28,1.63,0.42,2.44,0.42c4.05,0,6.46-3.37,8.22-5.82c0.79-1.1,1.68-2.35,2.34-2.76l0.32-0.2l0.27-0.26
			c0.21-0.21,0.55-0.56,0.97-0.99c0.71-0.74,2.58-2.67,3.19-3.13c3.58-2.13,6.1-4.88,8.53-7.54c1.3-1.42,2.53-2.77,3.89-3.98
			c0.12-0.09,0.34-0.27,0.65-0.53c2.3-1.86,4.42-3.57,6.36-5.13l0.3,0.67c2.36,5.18,5.84,7.95,9.86,11.16
			c1.21,0.96,2.45,1.95,3.77,3.09c1.65,3.8,5.49,11.69,12.75,11.69c2.53,0,5.15-0.98,7.8-2.92l1.72-1.26l-0.36-2.1
			c-4.15-23.85,1.89-50.02,10.13-61.54l1.12-1.57l-0.74-1.73c-0.11-0.46,0.01-1.88,0.08-2.73c0.17-2.06,0.37-4.39-0.51-6.36
			l-0.22-0.49l-0.36-0.4C951.86,291.85,949.67,291.36,948.2,291.36L948.2,291.36C948.2,291.36,948.2,291.36,948.2,291.36
			L948.2,291.36z M913.76,344.52c6.71-5.36,10.69-8.47,13.06-10.27c-0.61,6.24-1.11,10.9-1.67,12.87c-0.37-0.12-0.8-0.27-1.19-0.4
			C921.71,345.95,918.41,344.81,913.76,344.52L913.76,344.52z M806.04,343.33c0.92-0.54,1.61-1.11,2.48-2.02
			c0.51-0.53,1.52-0.87,2.62-1.14c-1.58,5.15-6.12,12.12-8.58,15.26c-0.8-2.66,0.46-7.33,1.97-8.66c1.16-1.01,1.35-2.36,1.47-3.25
			C806.02,343.47,806.03,343.4,806.04,343.33L806.04,343.33z M786.76,371.87c0.44-1.42,1.03-2.85,1.76-4.25
			c0.44,0.69,0.91,1.38,1.43,2.07C789,370.49,787.92,371.22,786.76,371.87L786.76,371.87z"/>
	</g>
	<g>
		<path class="st1" d="M788.34,423.05c-1.44,0-2.77-1.15-4.64-2.9c-0.41-0.38-0.96-0.9-1.18-1.05c-1.9-0.82-7.32-5.27-7.42-9.4
			c-0.03-1.08,0.31-3.06,2.87-4.25c42.47-19.7,130.41-22.32,166.25-22.53l1.08,0c3.43,0,4.87,0.11,6.14,0.21
			c0.98,0.07,1.82,0.14,3.46,0.14c0.68,0,1.48-0.01,2.48-0.04l0.13,0c1.32,0,4.03,0.55,5.38,1.01c0.94,0.32,2.23,1.39,2.07,2.72
			c2.34,0.25,4.68,0.6,6.99,1.11c1.09,0.24,1.8,1.14,1.69,2.15c-0.09,0.84-0.82,1.75-2.21,1.75l0,0c-1.55-0.02-3.05-0.03-4.57-0.03
			c-56.79,0-130.2,15.58-177.76,31.01C788.84,423.01,788.59,423.05,788.34,423.05z"/>
		<path class="st0" d="M945.28,384.63c6.04,0,5.77,0.34,9.61,0.34c0.69,0,1.51-0.01,2.53-0.04c0.03,0,0.05,0,0.08,0
			c1.12,0,3.66,0.52,4.84,0.92c0.55,0.19,1.32,1.02,0.67,1.04c-4.01,0.08-8.38-0.04-12.31,0.3c-0.69,0.06-2.06,0.71-0.74,0.75
			c7.17,0.19,14.56,0.24,21.61,1.79c0.5,0.11,0.5,0.51-0.15,0.51c-0.01,0-0.02,0-0.02,0c-1.51-0.02-3.02-0.03-4.55-0.03
			c-60.9,0-135.21,17.12-178.28,31.09c-0.07,0.02-0.14,0.03-0.21,0.03c-1.39,0-4.23-3.44-5.11-3.79c-2.18-0.88-9.96-8.03-4.56-10.54
			c39.9-18.5,121.53-22.11,165.54-22.37C944.59,384.63,944.94,384.63,945.28,384.63 M945.28,381.21L945.28,381.21
			c-0.34,0-0.7,0-1.09,0c-35.95,0.21-124.18,2.85-166.96,22.69c-2.52,1.17-3.92,3.3-3.86,5.85c0.12,4.73,5.64,9.56,8.24,10.83
			c0.21,0.18,0.61,0.55,0.91,0.83c1.77,1.65,3.59,3.36,5.81,3.36c0.44,0,0.86-0.07,1.27-0.2c47.43-15.39,120.62-30.93,177.23-30.93
			c1.52,0,3.01,0.01,4.5,0.03l0.02,0l0.05,0c2.33,0,3.74-1.65,3.91-3.28c0.21-1.89-1.07-3.57-3.02-4c-1.95-0.43-3.9-0.75-5.87-0.99
			c-0.56-1.45-1.97-2.44-3.01-2.79c-1.36-0.46-4.27-1.1-5.93-1.1l-0.17,0c-0.98,0.03-1.77,0.04-2.44,0.04
			c-1.57,0-2.35-0.06-3.33-0.13C950.25,381.32,948.77,381.21,945.28,381.21L945.28,381.21z"/>
	</g>
	<g>
		<path class="st1" d="M362.4,449c-7.33,0-11.44-11.08-12.3-14.96c-0.62-2.8,0.4-5.1,1.31-7.13c0.3-0.67,0.58-1.29,0.8-1.93
			c1-2.85,2.85-5.75,4.64-8.56c3.27-5.15,5.47-9,4.6-12.04c-4.26,4.19-9.38,8.79-15.91,14.33c-3.79,3.79-7.26,6.68-10.31,8.59
			c-0.76,0.44-1.5,0.65-2.26,0.65c-3.51,0-6.12-4.48-7.07-8.64c-0.75-3.33-0.25-5.6,1.41-6.4c14.07-6.73,23.05-16.47,25.7-19.58
			c-2.97-3.94-8.74-12.22-1.37-19.04c6.26-5.8,11.38-10.24,15.5-10.24c1.46,0,2.74,0.57,3.7,1.66c0.92,1.04,2.04,1.98,3.12,2.89
			c2.58,2.17,5.25,4.41,5.83,8.35l0.02,0.15l0,0.15c-0.15,4.5-1.97,7.31-3.57,9.26c-1.11,1.92-2.5,3.96-4.12,6.08
			c0.86,0.88,1.96,1.76,3.05,2.63c2.96,2.37,6.3,5.05,5.46,8.58c-0.43,1.79-1.87,3.63-3.71,5.96c-2.72,3.46-6.02,7.66-6.47,12.54
			c7.16-3.26,15.29-10.5,23.16-20.69c1.3-2.05,2.54-4.11,3.74-6.1c4.89-8.12,9.11-15.13,15.48-18.51c2.75-1.46,5.78-2.26,8.54-2.26
			c3.1,0,5.69,1,7.5,2.89c1.06,1.1,1.82,2.47,2.28,4.08c1.79-2.72,3.48-5.29,5.22-7.31c0.26-0.3,0.5-0.63,0.75-0.96
			c0.95-1.27,2.12-2.86,4.09-2.86c0.51,0,1.03,0.11,1.54,0.34c2.63,1.16,6.44,5.33,9.06,9.91c0.48,0.84,0.49,2.83-0.16,3.72
			l-1.32,1.79c-6.93,9.4-14.1,19.12-16.16,30.66c4.69-3.5,20.18-19.1,32.67-41.43c0.48-0.84,0.95-1.69,1.41-2.56
			c2.29-4.21,4.88-8.99,9.45-11.25c0.85-0.42,1.54-0.81,2.09-1.12c1.14-0.64,1.96-1.11,2.94-1.11c1.28,0,2.16,0.79,2.91,1.64
			c3.09,3.49,3.04,7.76,3,11.53l-0.01,1.09c-0.01,2.13-1.88,4.04-2.25,4.4c-4.88,4.72-13.1,14.09-15.85,25.92
			c8.45-6.4,13.68-11.44,19.4-18.6c1.7-2.13,11.89-15.36,16-22.51c0.01-0.02,0.95-1.52,1.56-1.98c1.3-0.97,2.95-1.5,4.66-1.5
			c3.24,0,5.84,1.86,6.34,4.53c0.23,1.21-0.06,2.18-0.28,2.89c-0.2,0.67-0.28,0.96-0.13,1.37c1.52,4.45-0.72,7.52-2.88,10.5
			c-0.84,1.16-1.71,2.35-2.45,3.7c-1.04,1.9-2.19,3.82-3.41,5.85c-3.06,5.11-6.21,10.36-7.75,15.53c2.41-1.71,5.48-4.28,5.95-5.18
			c1.06-2.43,2.89-3.32,4.36-4.04c1.38-0.67,2.47-1.21,3.29-2.88c1.27-2.6,6.25-6.48,14.26-12.59c6.58-5.02,14.05-10.72,18.84-15.75
			l0.17-0.18l0.22-0.12c2.14-1.22,4.86-4.74,7.5-8.15c3.63-4.69,6.76-8.75,9.84-9.13c0.11-0.01,0.22-0.02,0.34-0.02
			c2.92,0,4.66,4.5,4.68,4.54c0.41,1.12,0.92,2.23,1.4,3.31c0.22,0.48,0.43,0.95,0.63,1.42c0.69,1.58-0.45,3.39-0.95,3.95
			c-13.31,14.95-13.71,42.8-14,63.13c0,0.08,0.01,0.19,0.02,0.31c0.08,1.07,0.31,4.33-3.38,5.43c-0.5,0.15-1.02,0.23-1.55,0.23l0,0
			c-5.54,0-9.56-8.11-10.31-9.73c-0.6-1.29-1.5-2.52-2.41-3.27c-5.46-4.5-7.88-7.4-10.38-12.4c-0.36-0.72-0.32-1.55,0.1-2.22
			c0.54-0.87,1.66-1.41,2.92-1.41c0.14,0,0.28,0.01,0.42,0.02c2.04,0.21,4.6,1,6.85,1.69c1.25,0.38,2.62,0.81,3.54,1
			c1.56-5.98,2.5-12.06,2.67-17.11c-1.85,1.17-5.19,4.98-7.12,7.18c-3.97,4.52-5.96,6.7-7.87,6.7c-0.19-0.01-0.29-0.01-0.39-0.01
			c-1.56,0-3.24,0.46-5.14,1.41c-1.82,1.26-2.27,2.1-2.68,2.84c-0.38,0.69-0.84,1.54-2.03,2.24c-2.94,1.72-5.19,3.94-7.56,6.29
			c-2.35,2.32-4.77,4.71-7.94,6.64c-0.4,0.25-1.7,1.61-2.48,2.42c-0.98,1.02-1.61,1.67-2.06,2.03c-0.83,0.66-1.74,1.95-2.61,3.2
			c-1.79,2.56-3.83,5.46-6.86,5.46c-0.83,0-1.66-0.23-2.48-0.67c-4.92-2.71-8.54-7.86-9.5-13.19c-3.18,2.31-6.15,5.72-9.05,9.04
			c-2.34,2.68-4.76,5.45-7.3,7.67l-0.7,0.61l-0.89-0.25c-5.29-1.5-9.54-6.82-11.9-14.78c-2.8,2.96-5.6,6.46-8.13,9.62
			c-5.72,7.16-9.11,11.2-12.16,11.2c-0.68,0-1.33-0.21-1.87-0.6c-13.09-9.39-12.73-11.67-12.57-12.65c0.15-0.96,0.54-2.28,1-3.67
			c-2.21,2.38-4.56,5.24-6.86,8.05c-2.95,3.6-5.74,7-8.21,9.37l-0.46,0.44l-0.63,0.04c-0.1,0.01-0.21,0.01-0.33,0.01
			c-4.05,0-15.01-4.46-16.97-10.55l-0.01-0.03c-5.31,6.08-16.1,17.18-18.22,17.88C363.9,448.88,363.14,449,362.4,449z
			 M424.45,389.54c-8.32,4.34-15.79,13.7-20.61,25.69c4.3-4.05,10.27-9.97,12.59-12.79C419.7,398.46,423.01,392.75,424.45,389.54z
			 M361.04,383.92c0.33-0.43,0.71-1.02,1.07-1.65c-0.06,0.05-0.11,0.1-0.17,0.15c-0.65,0.6-0.95,0.89-1.05,1.32
			C360.95,383.8,361,383.86,361.04,383.92z"/>
		<path class="st0" d="M566.36,347.55c1.32,0,2.74,2.52,3.07,3.43c0.62,1.67,1.39,3.27,2.07,4.83c0.28,0.65-0.31,1.73-0.66,2.13
			c-13.68,15.36-14.14,43.45-14.43,64.25c-0.01,0.88,0.62,3.29-2.14,4.12c-0.35,0.11-0.71,0.15-1.06,0.15c-3.55,0-7.03-5-8.75-8.74
			c-0.76-1.66-1.86-3.04-2.88-3.88c-5.04-4.16-7.47-6.91-9.93-11.85c-0.32-0.64,0.55-1.16,1.48-1.16c0.08,0,0.17,0,0.25,0.01
			c3.59,0.36,9.3,2.81,11.35,2.81c0.22,0,0.4-0.03,0.52-0.09c1.98-7.19,3.12-14.68,3.1-20.58c-0.25-0.23-0.55-0.33-0.88-0.33
			c-3.92,0-13.16,14.23-15.85,14.23c-0.01,0-0.02,0-0.03,0c-0.12,0-0.24-0.01-0.36-0.01c-1.98,0-4,0.62-6.01,1.64
			c-3.85,2.64-2.84,3.99-4.69,5.07c-6.15,3.6-9.43,9.23-15.53,12.95c-0.98,0.6-3.81,3.85-4.72,4.57c-2.74,2.17-4.99,8.29-8.41,8.29
			c-0.52,0-1.07-0.14-1.65-0.46c-5.07-2.79-8.94-8.74-8.87-14.63c-7.06,3.74-12.6,12.84-18.93,18.36c-5.96-1.7-9.76-8.8-11.46-16.47
			c-8.54,8.08-17.12,22.45-21.19,22.45c-0.32,0-0.61-0.09-0.87-0.28c-4.29-3.07-12.17-9.18-11.88-10.99
			c0.38-2.38,2.49-7.59,3.08-9.73c-5.99,4.22-14.21,16.38-20.02,21.97c-0.07,0-0.15,0.01-0.23,0.01c-3.58,0-13.71-4.28-15.34-9.36
			c-0.15-1.03-0.3-2.41-0.37-3.67c-0.09,0.43-17.32,19.52-20.03,20.41c-0.58,0.19-1.15,0.28-1.71,0.28c-5.5,0-9.55-8.78-10.63-13.61
			c-0.67-3.04,1.1-5.42,2.05-8.12c2.86-8.12,13.4-17.31,8.04-23.99c-5.33,5.38-11.44,10.77-17.48,15.9
			c-3.35,3.35-6.81,6.36-10.06,8.4c-0.46,0.27-0.91,0.39-1.35,0.39c-4.13,0-7.2-10.69-4.92-11.78
			c17.47-8.36,27.14-21.09,27.14-21.09c-2.76-3.68-9.28-11.44-2.39-17.83c5.45-5.05,10.79-9.79,14.34-9.79
			c0.94,0,1.76,0.33,2.42,1.08c3.14,3.57,7.83,5.51,8.54,10.35c-0.13,3.76-1.52,6.24-3.27,8.33c-1.33,2.32-3,4.69-4.92,7.11
			c2.73,3.73,9.98,6.87,9.05,10.76c-1,4.2-11.24,11.48-10.2,21.41c2.45-0.85,12.55-4.48,26.24-22.21c0,0,0,0,0,0
			c6.46-10.15,11.14-20.13,18.63-24.11c2.41-1.28,5.18-2.06,7.74-2.06c4.81,0,8.89,2.76,8.59,10.14c2.81-4.08,5.25-8.21,7.72-11.07
			c1.15-1.33,2.07-3.23,3.55-3.23c0.26,0,0.54,0.06,0.85,0.19c2.01,0.89,5.63,4.59,8.27,9.19c0.19,0.32,0.15,1.57-0.06,1.85
			c-7.52,10.24-15.93,21-17.94,34.13c-0.13,0.84,0.25,1.55,1.03,1.7c0.02,0,0.03,0,0.05,0c2,0,20.64-17.4,34.93-42.95
			c2.73-4.74,5.18-10.66,10.13-13.11c2.41-1.19,3.42-2.05,4.27-2.05c0.51,0,0.97,0.32,1.63,1.06c2.93,3.3,2.57,7.56,2.56,11.48
			c0,1.22-1.17,2.64-1.73,3.18c-7.99,7.71-15.12,18.17-16.87,29.61c-0.07,0.45,0.16,0.67,0.5,0.67c0.25,0,0.55-0.11,0.84-0.32
			c9.03-6.68,14.98-12.03,21.62-20.34c2.2-2.75,12.1-15.68,16.15-22.73c0.2-0.34,0.91-1.31,1.1-1.46c1.06-0.79,2.37-1.16,3.64-1.16
			c2.21,0,4.28,1.12,4.65,3.13c0.32,1.73-0.95,2.73-0.35,4.49c1.73,5.07-2.48,7.82-5.22,12.83c-4.26,7.77-10.92,16.76-12.15,25.51
			c1.73-0.23,9.24-6.04,10-7.78c1.66-3.82,5.51-2.56,7.62-6.87c2.3-4.7,22.93-17.55,32.8-27.91c5.27-3,12.29-16.52,16.7-17.07
			C566.28,347.55,566.32,347.55,566.36,347.55 M361.15,386.04c1.13,0,5.65-7.66,3.6-8.51c-0.06-0.02-0.13-0.04-0.2-0.04
			c-0.5,0-1.31,0.61-2.37,2.17c-1.22,1.78-3.13,2.22-3.02,4.61C359.39,384.53,360.32,386.04,361.15,386.04 M400.78,420.2
			c0.08,0,0.17-0.03,0.24-0.09c3.22-2.71,13.46-12.6,16.74-16.58c3.82-4.63,7.74-11.63,8.82-14.67c0.26-0.68-0.17-1.5-1.11-1.5
			c-0.29,0-0.63,0.08-1.02,0.26c-11.44,5.52-19.86,19.08-24.05,32.07C400.32,419.96,400.54,420.2,400.78,420.2 M566.36,344.13
			c-0.18,0-0.37,0.01-0.55,0.03c-3.6,0.45-6.52,4.01-10.98,9.78c-2.41,3.12-5.15,6.66-6.99,7.7l-0.44,0.25l-0.35,0.36
			c-4.7,4.93-12.11,10.58-18.64,15.57c-8.7,6.64-13.31,10.24-14.76,13.2c-0.54,1.11-1.12,1.42-2.5,2.1
			c-1.6,0.78-3.79,1.85-5.11,4.75c-0.08,0.11-0.19,0.24-0.32,0.38c1.49-3.01,3.31-6.04,5.09-9.02c1.23-2.05,2.39-3.98,3.44-5.91
			c0.69-1.26,1.53-2.41,2.34-3.52c2.29-3.15,4.89-6.72,3.15-11.96c0.03-0.11,0.08-0.29,0.12-0.43c0.25-0.83,0.62-2.07,0.32-3.69
			c-0.65-3.49-3.95-5.93-8.02-5.93c-2.08,0-4.09,0.65-5.68,1.84c-0.95,0.71-2.01,2.48-2.02,2.5c-4.05,7.06-14.16,20.18-15.85,22.3
			c-4.59,5.76-8.87,10.12-14.82,14.96c3.46-9,9.78-16.1,13.8-19.98c0.65-0.63,2.76-2.88,2.77-5.63c0-0.35,0.01-0.71,0.01-1.07
			c0.05-3.88,0.1-8.71-3.43-12.69c-0.59-0.66-1.97-2.22-4.19-2.22c-1.43,0-2.52,0.61-3.78,1.33c-0.56,0.32-1.19,0.67-2.01,1.08
			c-5.06,2.5-7.78,7.53-10.19,11.97c-0.48,0.88-0.93,1.71-1.38,2.5c-9.8,17.53-21.56,30.96-28.19,37.38
			c2.91-8.97,8.8-16.95,14.53-24.72l1.32-1.8c1.1-1.49,1.05-4.23,0.27-5.58c-2.83-4.94-6.88-9.3-9.85-10.62
			c-0.73-0.32-1.48-0.49-2.23-0.49c-2.83,0-4.42,2.14-5.47,3.55c-0.24,0.32-0.47,0.63-0.67,0.86c-1.23,1.43-2.42,3.09-3.63,4.88
			c-0.39-0.62-0.84-1.2-1.34-1.72c-2.14-2.23-5.16-3.41-8.74-3.41c-3.03,0-6.35,0.88-9.34,2.46c-6.79,3.6-11.33,11.15-16.14,19.14
			c-1.18,1.96-2.4,3.99-3.68,6c-6.5,8.4-13.14,14.73-19.19,18.38c1.2-3.03,3.37-5.79,5.25-8.18c1.96-2.5,3.51-4.47,4.03-6.62
			c1.09-4.58-2.87-7.76-6.06-10.31c-0.62-0.5-1.25-1-1.82-1.5c1.24-1.69,2.33-3.33,3.24-4.9c1.63-2.01,3.7-5.2,3.87-10.18l0.01-0.31
			l-0.04-0.3c-0.67-4.59-3.73-7.15-6.42-9.41c-1.08-0.91-2.1-1.76-2.93-2.71c-1.29-1.47-3.01-2.24-4.98-2.24
			c-4.74,0-10.13,4.64-16.67,10.7c-7.75,7.18-2.88,15.71,0.34,20.21c-3.36,3.75-11.76,12.15-24.25,18.13
			c-1.42,0.68-3.62,2.67-2.34,8.32c1.13,4.96,4.27,9.97,8.73,9.97c1.07,0,2.1-0.29,3.07-0.85l0.05-0.03l0.05-0.03
			c3.15-1.97,6.7-4.93,10.56-8.78c4.84-4.1,8.9-7.7,12.42-10.99c-0.75,1.7-2,3.81-3.72,6.52c-1.84,2.89-3.74,5.88-4.81,8.91
			c-0.2,0.57-0.47,1.17-0.75,1.8c-0.96,2.16-2.16,4.84-1.42,8.19c0.56,2.52,1.94,6.41,4.13,9.76c3.54,5.41,7.31,6.54,9.84,6.54
			c0.93,0,1.86-0.15,2.78-0.45c0.96-0.32,2.58-0.85,12.42-11.28c2.01-2.13,3.6-3.84,4.86-5.22c3.85,5.68,13.63,9.3,17.39,9.3
			c0.15,0,0.29,0,0.42-0.01l1.26-0.07l0.91-0.88c2.54-2.44,5.36-5.87,8.34-9.51c0.98-1.19,1.99-2.42,3.01-3.64
			c0.74,2,3.57,5.37,13.1,12.21c0.84,0.6,1.83,0.92,2.87,0.92c3.84,0,7.27-4.06,13.49-11.85c1.92-2.4,4-5,6.1-7.39
			c2.67,6.98,6.92,11.65,12.12,13.13l1.79,0.51l1.4-1.22c2.63-2.29,5.08-5.11,7.46-7.83c2.21-2.53,4.46-5.11,6.78-7.17
			c1.62,4.81,5.14,9.21,9.66,11.69c1.07,0.59,2.18,0.89,3.3,0.89c3.92,0,6.33-3.43,8.26-6.19c0.77-1.1,1.64-2.34,2.27-2.84
			c0.54-0.43,1.2-1.11,2.24-2.19c0.67-0.7,1.79-1.86,2.2-2.18c3.31-2.03,5.79-4.48,8.2-6.85c2.3-2.27,4.47-4.41,7.22-6.03
			c1.6-0.94,2.24-2.11,2.67-2.89c0.35-0.64,0.65-1.19,2.05-2.18c0.44-0.21,0.86-0.4,1.27-0.55c-0.18,0.86-0.07,1.77,0.34,2.59
			c2.59,5.19,5.22,8.34,10.82,12.96c0.56,0.46,1.37,1.41,1.95,2.67c1.16,2.52,5.45,10.73,11.86,10.73c0.69,0,1.38-0.1,2.04-0.3
			c2.28-0.68,4.94-2.48,4.6-7.19c-0.01-0.08-0.01-0.15-0.01-0.21c0.28-20.02,0.67-47.5,13.56-61.97c0.94-1.05,2.25-3.45,1.24-5.77
			c-0.21-0.48-0.42-0.96-0.64-1.44c-0.47-1.05-0.97-2.14-1.36-3.2C572.63,349.73,570.51,344.13,566.36,344.13L566.36,344.13z
			 M536.29,397.89c1.23-1.17,2.66-2.77,4.49-4.85c1.01-1.15,2.47-2.81,3.84-4.23c-0.36,3.45-1.01,7.19-1.91,10.94
			c-0.61-0.18-1.26-0.38-1.79-0.54C539.44,398.74,537.83,398.25,536.29,397.89L536.29,397.89z M409.84,406.99
			c2.67-4.52,5.95-8.78,9.76-12.06c-1.36,2.22-2.93,4.52-4.49,6.42C414.01,402.69,412.05,404.76,409.84,406.99L409.84,406.99z"/>
	</g>
</g>
</svg>
